{
DisplayStrings = (
"~"
);
customParameters = (
{
name = glyphOrder;
value = (
    ".notdef",
    NULL,
    uni000D,
    space,
    ThumbDown,
    RSS,
    Facebook,
    Twitter,
    Pinterest,
    Github,
    Path,
    LinkedIn,
    Dribbble,
    StumbleUpon,
    Behance,
    Reddit,
    GooglePlus,
    YouTube,
    Vimeo,
    Flickr,
    SlideShare,
    Picassa,
    Skype,
    Steam,
    Instagram,
    Fourquare,
    Delicious,
    Chat,
    Person,
    Tumblr,
    VideoChat,
    Digg,
    Wordpress,
    asciitilde,
    ThumbsUp
);}
);
date = "2013-12-11 14:54:29 +0000";
familyName = "Social Foundicons";
fontMaster = (
{
ascender = 1000;
capHeight = 800;
customParameters = (
{
name = TypoAscender;
value = 1000;
},
{
name = TypoDescender;
value = 0;
},
{
name = postscriptUnderlinePosition;
value = "-75";
}
);
descender = "-250";
id = "9777D1EF-E2A1-4411-A5D2-A69EAB6CED10";
userData = {
GSCornerRadius = 120;
};
weightValue = 400;
widthValue = 5;
xHeight = 400;
}
);
glyphs = (
{
glyphname = ThumbDown;
layers = (
{
layerId = "9777D1EF-E2A1-4411-A5D2-A69EAB6CED10";
name = Regular;
paths = (
{
closed = 1;
nodes = (
"881 268 OFFCURVE",
"870 263 OFFCURVE",
"857 263 CURVE SMOOTH",
"657 263 LINE",
"662 220 OFFCURVE",
"669 191 OFFCURVE",
"674 168 CURVE SMOOTH",
"681 136 OFFCURVE",
"666 107 OFFCURVE",
"647 84 CURVE SMOOTH",
"628 61 OFFCURVE",
"606 45 OFFCURVE",
"598 40 CURVE SMOOTH",
"577 27 OFFCURVE",
"550 35 OFFCURVE",
"539 59 CURVE SMOOTH",
"448 263 LINE",
"356 263 LINE SMOOTH",
"333 263 OFFCURVE",
"316 280 OFFCURVE",
"316 303 CURVE SMOOTH",
"316 707 LINE SMOOTH",
"316 730 OFFCURVE",
"333 747 OFFCURVE",
"356 747 CURVE SMOOTH",
"726 747 LINE SMOOTH",
"735 747 OFFCURVE",
"759 742 OFFCURVE",
"783 729 CURVE SMOOTH",
"806 716 OFFCURVE",
"829 694 OFFCURVE",
"840 659 CURVE",
"896 311 LINE SMOOTH",
"898 298 OFFCURVE",
"895 287 OFFCURVE",
"888 278 CURVE"
);
},
{
closed = 1;
nodes = (
"121 255 LINE SMOOTH",
"105 255 OFFCURVE",
"92 268 OFFCURVE",
"92 283 CURVE SMOOTH",
"92 729 LINE SMOOTH",
"92 745 OFFCURVE",
"105 757 OFFCURVE",
"121 757 CURVE SMOOTH",
"238 757 LINE SMOOTH",
"254 757 OFFCURVE",
"267 745 OFFCURVE",
"267 729 CURVE SMOOTH",
"267 283 LINE SMOOTH",
"267 268 OFFCURVE",
"254 255 OFFCURVE",
"238 255 CURVE SMOOTH"
);
}
);
width = 1000;
}
);
unicode = F001;
},
{
glyphname = RSS;
layers = (
{
layerId = "9777D1EF-E2A1-4411-A5D2-A69EAB6CED10";
name = Regular;
paths = (
{
closed = 1;
nodes = (
"282 957 OFFCURVE",
"424 916 OFFCURVE",
"547 844 CURVE SMOOTH",
"670 772 OFFCURVE",
"772 670 OFFCURVE",
"844 547 CURVE SMOOTH",
"916 424 OFFCURVE",
"957 282 OFFCURVE",
"957 130 CURVE SMOOTH",
"957 82 OFFCURVE",
"918 43 OFFCURVE",
"870 43 CURVE SMOOTH",
"822 43 OFFCURVE",
"783 82 OFFCURVE",
"783 130 CURVE SMOOTH",
"783 250 OFFCURVE",
"750 363 OFFCURVE",
"694 460 CURVE SMOOTH",
"637 556 OFFCURVE",
"556 637 OFFCURVE",
"460 694 CURVE SMOOTH",
"363 750 OFFCURVE",
"250 783 OFFCURVE",
"130 783 CURVE SMOOTH",
"82 783 OFFCURVE",
"43 822 OFFCURVE",
"43 870 CURVE SMOOTH",
"43 918 OFFCURVE",
"82 957 OFFCURVE",
"130 957 CURVE SMOOTH"
);
},
{
closed = 1;
nodes = (
"267 628 OFFCURVE",
"392 572 OFFCURVE",
"482 482 CURVE SMOOTH",
"572 392 OFFCURVE",
"628 267 OFFCURVE",
"628 130 CURVE SMOOTH",
"628 82 OFFCURVE",
"589 43 OFFCURVE",
"541 43 CURVE SMOOTH",
"493 43 OFFCURVE",
"454 82 OFFCURVE",
"454 130 CURVE SMOOTH",
"454 219 OFFCURVE",
"418 300 OFFCURVE",
"359 359 CURVE SMOOTH",
"300 418 OFFCURVE",
"219 454 OFFCURVE",
"130 454 CURVE SMOOTH",
"82 454 OFFCURVE",
"43 493 OFFCURVE",
"43 541 CURVE SMOOTH",
"43 589 OFFCURVE",
"82 628 OFFCURVE",
"130 628 CURVE SMOOTH"
);
},
{
closed = 1;
nodes = (
"290 136 OFFCURVE",
"277 107 OFFCURVE",
"255 85 CURVE SMOOTH",
"233 63 OFFCURVE",
"201 49 OFFCURVE",
"168 49 CURVE SMOOTH",
"133 49 OFFCURVE",
"104 63 OFFCURVE",
"82 85 CURVE SMOOTH",
"60 107 OFFCURVE",
"46 136 OFFCURVE",
"46 171 CURVE SMOOTH",
"46 204 OFFCURVE",
"60 236 OFFCURVE",
"82 258 CURVE SMOOTH",
"104 280 OFFCURVE",
"133 293 OFFCURVE",
"168 293 CURVE SMOOTH",
"201 293 OFFCURVE",
"233 280 OFFCURVE",
"255 258 CURVE SMOOTH",
"277 236 OFFCURVE",
"290 204 OFFCURVE",
"290 171 CURVE SMOOTH"
);
}
);
width = 1000;
}
);
unicode = F002;
},
{
glyphname = Facebook;
layers = (
{
layerId = "9777D1EF-E2A1-4411-A5D2-A69EAB6CED10";
name = Regular;
paths = (
{
closed = 1;
nodes = (
"969 50 LINE SMOOTH",
"969 37 OFFCURVE",
"958 27 OFFCURVE",
"945 27 CURVE SMOOTH",
"55 27 LINE SMOOTH",
"42 27 OFFCURVE",
"31 37 OFFCURVE",
"31 50 CURVE SMOOTH",
"31 950 LINE SMOOTH",
"31 963 OFFCURVE",
"42 973 OFFCURVE",
"55 973 CURVE SMOOTH",
"945 973 LINE SMOOTH",
"958 973 OFFCURVE",
"969 963 OFFCURVE",
"969 950 CURVE SMOOTH"
);
},
{
closed = 1;
nodes = (
"683 137 LINE",
"683 471 LINE",
"805 471 LINE",
"810 591 LINE",
"683 591 LINE",
"683 679 LINE SMOOTH",
"683 712 OFFCURVE",
"689 733 OFFCURVE",
"732 732 CURVE SMOOTH",
"807 732 LINE",
"810 844 LINE",
"801 845 OFFCURVE",
"791 846 OFFCURVE",
"782 847 CURVE",
"772 847 OFFCURVE",
"763 847 OFFCURVE",
"755 848 CURVE SMOOTH",
"746 849 OFFCURVE",
"736 849 OFFCURVE",
"727 849 CURVE",
"668 853 OFFCURVE",
"627 835 OFFCURVE",
"600 805 CURVE SMOOTH",
"572 775 OFFCURVE",
"559 734 OFFCURVE",
"559 694 CURVE SMOOTH",
"559 591 LINE",
"473 591 LINE",
"473 471 LINE",
"559 471 LINE",
"559 137 LINE"
);
}
);
width = 1000;
}
);
unicode = F003;
},
{
glyphname = Twitter;
layers = (
{
layerId = "9777D1EF-E2A1-4411-A5D2-A69EAB6CED10";
name = Regular;
paths = (
{
closed = 1;
nodes = (
"960 770 OFFCURVE",
"926 725 OFFCURVE",
"878 696 CURVE",
"879 685 OFFCURVE",
"880 677 OFFCURVE",
"880 666 CURVE SMOOTH",
"880 610 OFFCURVE",
"868 541 OFFCURVE",
"841 473 CURVE SMOOTH",
"814 404 OFFCURVE",
"774 334 OFFCURVE",
"718 277 CURVE SMOOTH",
"662 220 OFFCURVE",
"591 173 OFFCURVE",
"503 152 CURVE SMOOTH",
"452 141 OFFCURVE",
"400 135 OFFCURVE",
"349 135 CURVE SMOOTH",
"305 135 OFFCURVE",
"257 139 OFFCURVE",
"210 152 CURVE SMOOTH",
"162 164 OFFCURVE",
"115 185 OFFCURVE",
"75 218 CURVE",
"179 203 OFFCURVE",
"273 240 OFFCURVE",
"349 297 CURVE",
"332 297 OFFCURVE",
"301 298 OFFCURVE",
"269 315 CURVE",
"236 331 OFFCURVE",
"200 363 OFFCURVE",
"175 426 CURVE",
"183 423 OFFCURVE",
"198 423 OFFCURVE",
"214 424 CURVE SMOOTH",
"230 425 OFFCURVE",
"246 427 OFFCURVE",
"258 430 CURVE",
"189 451 OFFCURVE",
"152 490 OFFCURVE",
"133 527 CURVE SMOOTH",
"114 564 OFFCURVE",
"112 600 OFFCURVE",
"112 619 CURVE",
"129 608 OFFCURVE",
"168 593 OFFCURVE",
"195 594 CURVE",
"140 639 OFFCURVE",
"118 685 OFFCURVE",
"114 727 CURVE SMOOTH",
"109 769 OFFCURVE",
"120 809 OFFCURVE",
"136 846 CURVE",
"209 763 OFFCURVE",
"284 714 OFFCURVE",
"350 686 CURVE SMOOTH",
"416 658 OFFCURVE",
"474 651 OFFCURVE",
"517 651 CURVE",
"509 704 OFFCURVE",
"516 753 OFFCURVE",
"540 793 CURVE SMOOTH",
"563 833 OFFCURVE",
"602 862 OFFCURVE",
"655 877 CURVE SMOOTH",
"720 896 OFFCURVE",
"783 873 OFFCURVE",
"826 824 CURVE",
"835 825 OFFCURVE",
"850 828 OFFCURVE",
"870 833 CURVE SMOOTH",
"890 838 OFFCURVE",
"915 850 OFFCURVE",
"945 868 CURVE",
"941 855 OFFCURVE",
"932 834 OFFCURVE",
"919 814 CURVE SMOOTH",
"906 794 OFFCURVE",
"887 774 OFFCURVE",
"863 762 CURVE",
"883 766 OFFCURVE",
"904 771 OFFCURVE",
"931 780 CURVE SMOOTH",
"944 784 OFFCURVE",
"958 789 OFFCURVE",
"972 795 CURVE"
);
}
);
width = 1000;
}
);
unicode = F004;
},
{
glyphname = Pinterest;
layers = (
{
layerId = "9777D1EF-E2A1-4411-A5D2-A69EAB6CED10";
name = Regular;
paths = (
{
closed = 1;
nodes = (
"628 963 OFFCURVE",
"744 911 OFFCURVE",
"828 828 CURVE SMOOTH",
"911 744 OFFCURVE",
"963 628 OFFCURVE",
"963 500 CURVE SMOOTH",
"963 372 OFFCURVE",
"911 256 OFFCURVE",
"828 173 CURVE SMOOTH",
"744 89 OFFCURVE",
"628 37 OFFCURVE",
"500 37 CURVE SMOOTH",
"453 37 OFFCURVE",
"410 44 OFFCURVE",
"369 56 CURVE",
"386 84 OFFCURVE",
"406 119 OFFCURVE",
"415 155 CURVE",
"418 164 OFFCURVE",
"423 185 OFFCURVE",
"431 218 CURVE SMOOTH",
"435 234 OFFCURVE",
"441 255 OFFCURVE",
"448 282 CURVE",
"464 251 OFFCURVE",
"510 225 OFFCURVE",
"561 225 CURVE SMOOTH",
"636 225 OFFCURVE",
"698 259 OFFCURVE",
"742 316 CURVE SMOOTH",
"786 372 OFFCURVE",
"811 451 OFFCURVE",
"811 542 CURVE SMOOTH",
"811 610 OFFCURVE",
"782 677 OFFCURVE",
"731 726 CURVE SMOOTH",
"680 775 OFFCURVE",
"606 807 OFFCURVE",
"518 807 CURVE SMOOTH",
"407 807 OFFCURVE",
"325 768 OFFCURVE",
"270 712 CURVE SMOOTH",
"215 656 OFFCURVE",
"187 583 OFFCURVE",
"187 518 CURVE SMOOTH",
"187 438 OFFCURVE",
"217 368 OFFCURVE",
"282 341 CURVE",
"293 337 OFFCURVE",
"302 341 OFFCURVE",
"305 353 CURVE SMOOTH",
"306 357 OFFCURVE",
"308 363 OFFCURVE",
"310 371 CURVE",
"311 379 OFFCURVE",
"313 385 OFFCURVE",
"314 390 CURVE",
"317 402 OFFCURVE",
"316 405 OFFCURVE",
"308 416 CURVE",
"289 439 OFFCURVE",
"277 466 OFFCURVE",
"277 507 CURVE SMOOTH",
"277 566 OFFCURVE",
"299 621 OFFCURVE",
"339 662 CURVE SMOOTH",
"378 702 OFFCURVE",
"434 728 OFFCURVE",
"505 728 CURVE SMOOTH",
"566 728 OFFCURVE",
"615 709 OFFCURVE",
"648 678 CURVE SMOOTH",
"681 646 OFFCURVE",
"698 602 OFFCURVE",
"698 551 CURVE SMOOTH",
"698 484 OFFCURVE",
"684 422 OFFCURVE",
"658 378 CURVE SMOOTH",
"632 333 OFFCURVE",
"595 305 OFFCURVE",
"551 305 CURVE SMOOTH",
"527 305 OFFCURVE",
"505 315 OFFCURVE",
"492 331 CURVE SMOOTH",
"479 347 OFFCURVE",
"471 370 OFFCURVE",
"478 394 CURVE",
"481 409 OFFCURVE",
"485 424 OFFCURVE",
"490 439 CURVE SMOOTH",
"499 469 OFFCURVE",
"509 497 OFFCURVE",
"515 523 CURVE SMOOTH",
"518 536 OFFCURVE",
"519 547 OFFCURVE",
"519 558 CURVE SMOOTH",
"519 597 OFFCURVE",
"499 628 OFFCURVE",
"456 628 CURVE SMOOTH",
"432 628 OFFCURVE",
"409 616 OFFCURVE",
"393 594 CURVE SMOOTH",
"377 572 OFFCURVE",
"367 541 OFFCURVE",
"367 508 CURVE SMOOTH",
"367 491 OFFCURVE",
"370 475 OFFCURVE",
"374 459 CURVE",
"375 450 OFFCURVE",
"378 442 OFFCURVE",
"382 435 CURVE",
"369 381 OFFCURVE",
"358 338 OFFCURVE",
"351 305 CURVE SMOOTH",
"344 272 OFFCURVE",
"338 246 OFFCURVE",
"333 228 CURVE SMOOTH",
"322 185 OFFCURVE",
"317 165 OFFCURVE",
"315 128 CURVE SMOOTH",
"314 109 OFFCURVE",
"313 92 OFFCURVE",
"314 76 CURVE",
"233 112 OFFCURVE",
"163 171 OFFCURVE",
"115 244 CURVE SMOOTH",
"66 317 OFFCURVE",
"37 405 OFFCURVE",
"37 500 CURVE SMOOTH",
"37 628 OFFCURVE",
"89 744 OFFCURVE",
"173 828 CURVE SMOOTH",
"256 911 OFFCURVE",
"372 963 OFFCURVE",
"500 963 CURVE SMOOTH"
);
}
);
width = 1000;
}
);
unicode = F005;
},
{
glyphname = Github;
layers = (
{
layerId = "9777D1EF-E2A1-4411-A5D2-A69EAB6CED10";
name = Regular;
paths = (
{
closed = 1;
nodes = (
"621 938 OFFCURVE",
"730 889 OFFCURVE",
"810 810 CURVE SMOOTH",
"889 730 OFFCURVE",
"938 621 OFFCURVE",
"938 500 CURVE SMOOTH",
"938 379 OFFCURVE",
"889 270 OFFCURVE",
"810 191 CURVE SMOOTH",
"730 111 OFFCURVE",
"621 62 OFFCURVE",
"500 62 CURVE SMOOTH",
"379 62 OFFCURVE",
"270 111 OFFCURVE",
"191 191 CURVE SMOOTH",
"111 270 OFFCURVE",
"63 379 OFFCURVE",
"63 500 CURVE SMOOTH",
"63 621 OFFCURVE",
"111 730 OFFCURVE",
"191 810 CURVE SMOOTH",
"270 889 OFFCURVE",
"379 938 OFFCURVE",
"500 938 CURVE SMOOTH"
);
},
{
closed = 1;
nodes = (
"392 890 OFFCURVE",
"295 847 OFFCURVE",
"224 776 CURVE SMOOTH",
"153 705 OFFCURVE",
"110 608 OFFCURVE",
"110 500 CURVE SMOOTH",
"110 392 OFFCURVE",
"153 295 OFFCURVE",
"224 224 CURVE SMOOTH",
"295 153 OFFCURVE",
"392 110 OFFCURVE",
"500 110 CURVE SMOOTH",
"608 110 OFFCURVE",
"705 153 OFFCURVE",
"776 224 CURVE SMOOTH",
"847 295 OFFCURVE",
"890 392 OFFCURVE",
"890 500 CURVE SMOOTH",
"890 608 OFFCURVE",
"847 705 OFFCURVE",
"776 776 CURVE SMOOTH",
"705 847 OFFCURVE",
"608 890 OFFCURVE",
"500 890 CURVE SMOOTH"
);
},
{
closed = 1;
nodes = (
"654 443 OFFCURVE",
"675 470 OFFCURVE",
"675 511 CURVE SMOOTH",
"675 554 OFFCURVE",
"662 576 OFFCURVE",
"631 592 CURVE SMOOTH",
"616 600 OFFCURVE",
"596 600 OFFCURVE",
"573 600 CURVE",
"562 599 OFFCURVE",
"550 599 OFFCURVE",
"537 598 CURVE SMOOTH",
"524 597 OFFCURVE",
"512 596 OFFCURVE",
"499 596 CURVE SMOOTH",
"486 596 OFFCURVE",
"474 597 OFFCURVE",
"461 598 CURVE SMOOTH",
"436 600 OFFCURVE",
"413 600 OFFCURVE",
"393 599 CURVE SMOOTH",
"373 598 OFFCURVE",
"347 586 OFFCURVE",
"334 562 CURVE SMOOTH",
"327 549 OFFCURVE",
"324 532 OFFCURVE",
"324 511 CURVE SMOOTH",
"324 470 OFFCURVE",
"345 443 OFFCURVE",
"387 428 CURVE",
"402 424 OFFCURVE",
"417 421 OFFCURVE",
"439 418 CURVE",
"450 417 OFFCURVE",
"462 416 OFFCURVE",
"477 416 CURVE SMOOTH",
"521 416 LINE SMOOTH",
"549 416 OFFCURVE",
"572 419 OFFCURVE",
"588 422 CURVE SMOOTH",
"597 424 OFFCURVE",
"605 426 OFFCURVE",
"612 428 CURVE"
);
},
{
closed = 1;
nodes = (
"732 530 OFFCURVE",
"724 492 OFFCURVE",
"699 461 CURVE SMOOTH",
"674 430 OFFCURVE",
"630 409 OFFCURVE",
"561 404 CURVE",
"566 401 OFFCURVE",
"573 398 OFFCURVE",
"582 394 CURVE",
"598 386 OFFCURVE",
"608 367 OFFCURVE",
"610 339 CURVE SMOOTH",
"611 325 OFFCURVE",
"611 311 OFFCURVE",
"611 296 CURVE SMOOTH",
"611 281 OFFCURVE",
"611 268 OFFCURVE",
"611 256 CURVE",
"610 231 OFFCURVE",
"614 227 OFFCURVE",
"624 219 CURVE SMOOTH",
"629 215 OFFCURVE",
"633 212 OFFCURVE",
"636 210 CURVE SMOOTH",
"639 208 OFFCURVE",
"640 206 OFFCURVE",
"639 203 CURVE",
"636 197 OFFCURVE",
"622 196 OFFCURVE",
"610 199 CURVE SMOOTH",
"598 202 OFFCURVE",
"587 209 OFFCURVE",
"580 219 CURVE",
"576 224 OFFCURVE",
"574 230 OFFCURVE",
"574 238 CURVE SMOOTH",
"574 320 LINE SMOOTH",
"574 339 OFFCURVE",
"563 345 OFFCURVE",
"554 348 CURVE",
"554 240 LINE SMOOTH",
"554 221 OFFCURVE",
"556 208 OFFCURVE",
"561 202 CURVE SMOOTH",
"565 197 OFFCURVE",
"569 190 OFFCURVE",
"570 186 CURVE",
"570 184 OFFCURVE",
"569 183 OFFCURVE",
"566 183 CURVE",
"563 182 OFFCURVE",
"558 183 OFFCURVE",
"551 185 CURVE SMOOTH",
"523 192 OFFCURVE",
"512 219 OFFCURVE",
"512 246 CURVE SMOOTH",
"512 352 LINE",
"490 352 LINE",
"490 246 LINE SMOOTH",
"490 219 OFFCURVE",
"480 192 OFFCURVE",
"451 185 CURVE",
"444 183 OFFCURVE",
"439 182 OFFCURVE",
"437 183 CURVE",
"434 183 OFFCURVE",
"433 184 OFFCURVE",
"433 186 CURVE SMOOTH",
"433 190 OFFCURVE",
"438 197 OFFCURVE",
"442 202 CURVE",
"445 207 OFFCURVE",
"449 221 OFFCURVE",
"449 240 CURVE SMOOTH",
"449 348 LINE",
"440 345 OFFCURVE",
"430 339 OFFCURVE",
"430 320 CURVE SMOOTH",
"430 238 LINE SMOOTH",
"430 222 OFFCURVE",
"422 213 OFFCURVE",
"411 206 CURVE SMOOTH",
"400 199 OFFCURVE",
"387 197 OFFCURVE",
"379 197 CURVE",
"371 198 OFFCURVE",
"366 200 OFFCURVE",
"365 203 CURVE SMOOTH",
"364 206 OFFCURVE",
"365 208 OFFCURVE",
"368 210 CURVE",
"375 214 OFFCURVE",
"387 222 OFFCURVE",
"392 233 CURVE",
"393 236 OFFCURVE",
"394 245 OFFCURVE",
"394 260 CURVE",
"393 274 OFFCURVE",
"393 290 OFFCURVE",
"393 307 CURVE",
"382 303 OFFCURVE",
"364 301 OFFCURVE",
"343 305 CURVE SMOOTH",
"307 312 OFFCURVE",
"292 326 OFFCURVE",
"275 362 CURVE",
"266 379 OFFCURVE",
"253 390 OFFCURVE",
"245 397 CURVE",
"240 400 OFFCURVE",
"237 403 OFFCURVE",
"235 406 CURVE",
"232 408 OFFCURVE",
"232 410 OFFCURVE",
"234 412 CURVE",
"242 421 OFFCURVE",
"260 418 OFFCURVE",
"263 415 CURVE",
"271 412 OFFCURVE",
"279 405 OFFCURVE",
"287 394 CURVE SMOOTH",
"295 383 OFFCURVE",
"303 374 OFFCURVE",
"312 367 CURVE",
"320 360 OFFCURVE",
"332 353 OFFCURVE",
"347 350 CURVE SMOOTH",
"362 347 OFFCURVE",
"380 349 OFFCURVE",
"397 361 CURVE",
"401 378 OFFCURVE",
"411 388 OFFCURVE",
"421 394 CURVE SMOOTH",
"426 397 OFFCURVE",
"430 399 OFFCURVE",
"435 401 CURVE",
"439 402 OFFCURVE",
"442 404 OFFCURVE",
"445 405 CURVE",
"372 410 OFFCURVE",
"327 431 OFFCURVE",
"300 461 CURVE SMOOTH",
"272 491 OFFCURVE",
"264 530 OFFCURVE",
"264 573 CURVE SMOOTH",
"264 617 OFFCURVE",
"278 651 OFFCURVE",
"302 678 CURVE",
"291 710 OFFCURVE",
"296 748 OFFCURVE",
"307 776 CURVE",
"358 773 OFFCURVE",
"393 749 OFFCURVE",
"406 737 CURVE",
"435 745 OFFCURVE",
"464 749 OFFCURVE",
"495 749 CURVE SMOOTH",
"502 749 LINE SMOOTH",
"531 749 OFFCURVE",
"558 746 OFFCURVE",
"585 739 CURVE",
"600 751 OFFCURVE",
"634 773 OFFCURVE",
"683 776 CURVE",
"694 749 OFFCURVE",
"698 714 OFFCURVE",
"690 683 CURVE",
"717 656 OFFCURVE",
"732 620 OFFCURVE",
"732 573 CURVE SMOOTH"
);
},
{
closed = 1;
nodes = (
"498 596 LINE",
"499 596 LINE",
"500 596 LINE"
);
},
{
closed = 1;
nodes = (
"627 499 OFFCURVE",
"616 484 OFFCURVE",
"601 484 CURVE SMOOTH",
"586 484 OFFCURVE",
"576 499 OFFCURVE",
"576 518 CURVE SMOOTH",
"576 537 OFFCURVE",
"586 552 OFFCURVE",
"601 552 CURVE SMOOTH",
"616 552 OFFCURVE",
"627 537 OFFCURVE",
"627 518 CURVE SMOOTH"
);
},
{
closed = 1;
nodes = (
"431 499 OFFCURVE",
"420 484 OFFCURVE",
"405 484 CURVE SMOOTH",
"390 484 OFFCURVE",
"380 499 OFFCURVE",
"380 518 CURVE SMOOTH",
"380 537 OFFCURVE",
"390 552 OFFCURVE",
"405 552 CURVE SMOOTH",
"420 552 OFFCURVE",
"431 537 OFFCURVE",
"431 518 CURVE SMOOTH"
);
}
);
width = 1000;
}
);
unicode = F006;
},
{
glyphname = Path;
layers = (
{
layerId = "9777D1EF-E2A1-4411-A5D2-A69EAB6CED10";
name = Regular;
paths = (
{
closed = 1;
nodes = (
"848 510 OFFCURVE",
"815 442 OFFCURVE",
"756 394 CURVE SMOOTH",
"696 346 OFFCURVE",
"611 319 OFFCURVE",
"507 318 CURVE",
"507 273 LINE SMOOTH",
"507 217 OFFCURVE",
"474 166 OFFCURVE",
"423 143 CURVE",
"410 136 OFFCURVE",
"391 131 OFFCURVE",
"368 131 CURVE SMOOTH",
"348 131 OFFCURVE",
"325 136 OFFCURVE",
"298 149 CURVE",
"298 279 LINE",
"319 263 OFFCURVE",
"339 260 OFFCURVE",
"355 265 CURVE",
"370 269 OFFCURVE",
"380 282 OFFCURVE",
"380 301 CURVE SMOOTH",
"380 662 LINE",
"507 662 LINE",
"507 437 LINE",
"527 437 OFFCURVE",
"559 439 OFFCURVE",
"592 447 CURVE SMOOTH",
"624 454 OFFCURVE",
"659 467 OFFCURVE",
"685 491 CURVE SMOOTH",
"711 514 OFFCURVE",
"729 546 OFFCURVE",
"729 593 CURVE SMOOTH",
"729 656 OFFCURVE",
"700 697 OFFCURVE",
"657 724 CURVE SMOOTH",
"613 751 OFFCURVE",
"556 762 OFFCURVE",
"500 762 CURVE SMOOTH",
"443 762 OFFCURVE",
"386 749 OFFCURVE",
"343 722 CURVE SMOOTH",
"299 694 OFFCURVE",
"271 652 OFFCURVE",
"271 593 CURVE SMOOTH",
"271 574 OFFCURVE",
"275 552 OFFCURVE",
"282 532 CURVE SMOOTH",
"289 512 OFFCURVE",
"298 494 OFFCURVE",
"307 486 CURVE",
"226 399 LINE",
"202 422 OFFCURVE",
"183 455 OFFCURVE",
"171 490 CURVE SMOOTH",
"159 525 OFFCURVE",
"152 562 OFFCURVE",
"152 593 CURVE SMOOTH",
"152 678 OFFCURVE",
"188 750 OFFCURVE",
"249 801 CURVE SMOOTH",
"310 852 OFFCURVE",
"397 881 OFFCURVE",
"500 881 CURVE SMOOTH",
"604 881 OFFCURVE",
"691 852 OFFCURVE",
"752 802 CURVE SMOOTH",
"813 752 OFFCURVE",
"848 678 OFFCURVE",
"848 593 CURVE SMOOTH"
);
}
);
width = 1000;
}
);
unicode = F007;
},
{
glyphname = LinkedIn;
layers = (
{
layerId = "9777D1EF-E2A1-4411-A5D2-A69EAB6CED10";
name = Regular;
paths = (
{
closed = 1;
nodes = (
"818 414 LINE SMOOTH",
"818 477 OFFCURVE",
"801 523 OFFCURVE",
"773 554 CURVE SMOOTH",
"745 585 OFFCURVE",
"706 599 OFFCURVE",
"661 599 CURVE SMOOTH",
"625 599 OFFCURVE",
"599 590 OFFCURVE",
"580 576 CURVE SMOOTH",
"560 562 OFFCURVE",
"547 544 OFFCURVE",
"538 531 CURVE",
"538 589 LINE",
"402 589 LINE",
"403 578 OFFCURVE",
"403 556 OFFCURVE",
"403 523 CURVE SMOOTH",
"403 495 OFFCURVE",
"403 454 OFFCURVE",
"403 399 CURVE SMOOTH",
"403 344 OFFCURVE",
"403 271 OFFCURVE",
"402 178 CURVE",
"538 178 LINE",
"538 408 LINE SMOOTH",
"538 420 OFFCURVE",
"539 432 OFFCURVE",
"543 441 CURVE SMOOTH",
"554 465 OFFCURVE",
"574 491 OFFCURVE",
"613 491 CURVE SMOOTH",
"662 491 OFFCURVE",
"682 454 OFFCURVE",
"682 398 CURVE SMOOTH",
"682 178 LINE",
"818 178 LINE"
);
},
{
closed = 1;
nodes = (
"306 645 OFFCURVE",
"336 677 OFFCURVE",
"335 716 CURVE",
"335 756 OFFCURVE",
"306 787 OFFCURVE",
"259 787 CURVE SMOOTH",
"212 787 OFFCURVE",
"182 756 OFFCURVE",
"182 716 CURVE SMOOTH",
"182 677 OFFCURVE",
"210 645 OFFCURVE",
"257 645 CURVE SMOOTH",
"258 645 LINE SMOOTH"
);
},
{
closed = 1;
nodes = (
"326 589 LINE",
"190 589 LINE",
"190 178 LINE",
"326 178 LINE"
);
},
{
closed = 1;
nodes = (
"958 973 OFFCURVE",
"969 963 OFFCURVE",
"969 950 CURVE SMOOTH",
"969 50 LINE SMOOTH",
"969 37 OFFCURVE",
"958 27 OFFCURVE",
"945 27 CURVE SMOOTH",
"55 27 LINE SMOOTH",
"42 27 OFFCURVE",
"31 37 OFFCURVE",
"31 50 CURVE SMOOTH",
"31 950 LINE SMOOTH",
"31 963 OFFCURVE",
"42 973 OFFCURVE",
"55 973 CURVE SMOOTH",
"945 973 LINE SMOOTH"
);
}
);
width = 1000;
}
);
unicode = F008;
},
{
glyphname = Dribbble;
layers = (
{
layerId = "9777D1EF-E2A1-4411-A5D2-A69EAB6CED10";
name = Regular;
paths = (
{
closed = 1;
nodes = (
"373 39 OFFCURVE",
"258 91 OFFCURVE",
"175 175 CURVE SMOOTH",
"91 258 OFFCURVE",
"39 373 OFFCURVE",
"39 500 CURVE SMOOTH",
"39 627 OFFCURVE",
"91 742 OFFCURVE",
"175 826 CURVE SMOOTH",
"258 909 OFFCURVE",
"373 961 OFFCURVE",
"500 961 CURVE SMOOTH",
"627 961 OFFCURVE",
"742 909 OFFCURVE",
"826 826 CURVE SMOOTH",
"909 742 OFFCURVE",
"961 627 OFFCURVE",
"961 500 CURVE SMOOTH",
"961 373 OFFCURVE",
"909 258 OFFCURVE",
"826 175 CURVE SMOOTH",
"742 91 OFFCURVE",
"627 39 OFFCURVE",
"500 39 CURVE SMOOTH"
);
},
{
closed = 1;
nodes = (
"886 438 OFFCURVE",
"877 440 OFFCURVE",
"862 444 CURVE SMOOTH",
"833 452 OFFCURVE",
"788 459 OFFCURVE",
"732 460 CURVE SMOOTH",
"703 461 OFFCURVE",
"674 459 OFFCURVE",
"643 454 CURVE",
"668 383 OFFCURVE",
"687 318 OFFCURVE",
"700 269 CURVE SMOOTH",
"706 244 OFFCURVE",
"711 224 OFFCURVE",
"714 207 CURVE SMOOTH",
"717 190 OFFCURVE",
"719 179 OFFCURVE",
"720 173 CURVE",
"808 233 OFFCURVE",
"870 326 OFFCURVE",
"889 437 CURVE"
);
},
{
closed = 1;
nodes = (
"651 154 OFFCURVE",
"643 193 OFFCURVE",
"630 246 CURVE SMOOTH",
"617 298 OFFCURVE",
"598 364 OFFCURVE",
"570 436 CURVE",
"569 435 OFFCURVE",
"568 435 OFFCURVE",
"567 435 CURVE",
"456 396 OFFCURVE",
"380 338 OFFCURVE",
"332 288 CURVE SMOOTH",
"307 263 OFFCURVE",
"289 241 OFFCURVE",
"278 222 CURVE SMOOTH",
"267 203 OFFCURVE",
"260 192 OFFCURVE",
"258 189 CURVE",
"326 137 OFFCURVE",
"408 106 OFFCURVE",
"500 106 CURVE SMOOTH",
"554 106 OFFCURVE",
"605 116 OFFCURVE",
"654 137 CURVE"
);
},
{
closed = 1;
nodes = (
"209 240 OFFCURVE",
"217 253 OFFCURVE",
"232 274 CURVE SMOOTH",
"261 317 OFFCURVE",
"316 374 OFFCURVE",
"393 430 CURVE SMOOTH",
"432 457 OFFCURVE",
"477 479 OFFCURVE",
"528 496 CURVE SMOOTH",
"531 497 OFFCURVE",
"533 498 OFFCURVE",
"536 499 CURVE",
"538 499 OFFCURVE",
"540 500 OFFCURVE",
"543 501 CURVE",
"538 512 OFFCURVE",
"532 523 OFFCURVE",
"527 534 CURVE SMOOTH",
"522 545 OFFCURVE",
"516 556 OFFCURVE",
"511 567 CURVE",
"412 538 OFFCURVE",
"316 524 OFFCURVE",
"242 517 CURVE SMOOTH",
"205 514 OFFCURVE",
"174 512 OFFCURVE",
"150 512 CURVE",
"125 511 OFFCURVE",
"111 511 OFFCURVE",
"106 511 CURVE",
"106 499 LINE SMOOTH",
"106 398 OFFCURVE",
"144 307 OFFCURVE",
"207 236 CURVE"
);
},
{
closed = 1;
nodes = (
"119 580 OFFCURVE",
"132 580 OFFCURVE",
"153 581 CURVE",
"196 581 OFFCURVE",
"262 587 OFFCURVE",
"347 600 CURVE SMOOTH",
"389 607 OFFCURVE",
"433 616 OFFCURVE",
"479 628 CURVE",
"446 685 OFFCURVE",
"412 739 OFFCURVE",
"385 780 CURVE SMOOTH",
"372 800 OFFCURVE",
"360 817 OFFCURVE",
"351 830 CURVE SMOOTH",
"342 843 OFFCURVE",
"336 852 OFFCURVE",
"333 856 CURVE",
"221 804 OFFCURVE",
"140 703 OFFCURVE",
"115 580 CURVE"
);
},
{
closed = 1;
nodes = (
"411 879 OFFCURVE",
"417 870 OFFCURVE",
"427 857 CURVE",
"446 830 OFFCURVE",
"474 788 OFFCURVE",
"507 736 CURVE SMOOTH",
"523 709 OFFCURVE",
"539 681 OFFCURVE",
"555 652 CURVE",
"624 677 OFFCURVE",
"675 711 OFFCURVE",
"708 739 CURVE SMOOTH",
"725 753 OFFCURVE",
"737 765 OFFCURVE",
"746 775 CURVE",
"754 785 OFFCURVE",
"759 791 OFFCURVE",
"761 794 CURVE",
"690 857 OFFCURVE",
"600 893 OFFCURVE",
"500 893 CURVE SMOOTH",
"469 893 OFFCURVE",
"439 889 OFFCURVE",
"408 882 CURVE"
);
},
{
closed = 1;
nodes = (
"803 745 OFFCURVE",
"797 739 OFFCURVE",
"788 728 CURVE",
"768 706 OFFCURVE",
"733 675 OFFCURVE",
"680 641 CURVE SMOOTH",
"653 624 OFFCURVE",
"622 608 OFFCURVE",
"585 593 CURVE",
"594 574 OFFCURVE",
"603 555 OFFCURVE",
"611 536 CURVE",
"612 533 OFFCURVE",
"614 529 OFFCURVE",
"616 526 CURVE",
"617 523 OFFCURVE",
"619 519 OFFCURVE",
"620 516 CURVE",
"685 524 OFFCURVE",
"750 521 OFFCURVE",
"801 517 CURVE",
"826 514 OFFCURVE",
"847 512 OFFCURVE",
"864 509 CURVE SMOOTH",
"881 506 OFFCURVE",
"891 504 OFFCURVE",
"894 503 CURVE",
"893 596 OFFCURVE",
"861 680 OFFCURVE",
"805 748 CURVE"
);
}
);
width = 1000;
}
);
unicode = F009;
},
{
glyphname = StumbleUpon;
layers = (
{
layerId = "9777D1EF-E2A1-4411-A5D2-A69EAB6CED10";
name = Regular;
paths = (
{
closed = 1;
nodes = (
"868 786 LINE",
"929 706 OFFCURVE",
"966 608 OFFCURVE",
"966 500 CURVE SMOOTH",
"966 372 OFFCURVE",
"914 255 OFFCURVE",
"830 171 CURVE SMOOTH",
"745 86 OFFCURVE",
"628 34 OFFCURVE",
"500 34 CURVE SMOOTH",
"409 34 OFFCURVE",
"325 60 OFFCURVE",
"254 105 CURVE SMOOTH",
"182 149 OFFCURVE",
"124 213 OFFCURVE",
"85 288 CURVE",
"288 288 LINE SMOOTH",
"385 288 OFFCURVE",
"452 340 OFFCURVE",
"452 424 CURVE SMOOTH",
"452 483 OFFCURVE",
"430 514 OFFCURVE",
"400 532 CURVE SMOOTH",
"370 550 OFFCURVE",
"332 554 OFFCURVE",
"302 559 CURVE SMOOTH",
"272 564 OFFCURVE",
"249 570 OFFCURVE",
"249 591 CURVE SMOOTH",
"249 622 OFFCURVE",
"273 632 OFFCURVE",
"317 632 CURVE SMOOTH",
"391 632 LINE",
"458 632 LINE SMOOTH",
"478 632 OFFCURVE",
"500 630 OFFCURVE",
"516 623 CURVE SMOOTH",
"532 616 OFFCURVE",
"544 604 OFFCURVE",
"544 583 CURVE SMOOTH",
"544 442 LINE SMOOTH",
"544 391 OFFCURVE",
"564 353 OFFCURVE",
"594 327 CURVE SMOOTH",
"624 301 OFFCURVE",
"665 288 OFFCURVE",
"706 288 CURVE SMOOTH",
"747 288 OFFCURVE",
"789 301 OFFCURVE",
"819 327 CURVE SMOOTH",
"849 353 OFFCURVE",
"868 391 OFFCURVE",
"868 442 CURVE SMOOTH"
);
},
{
closed = 1;
nodes = (
"597 966 OFFCURVE",
"686 936 OFFCURVE",
"762 885 CURVE",
"762 438 LINE SMOOTH",
"762 407 OFFCURVE",
"737 382 OFFCURVE",
"706 382 CURVE SMOOTH",
"675 382 OFFCURVE",
"649 407 OFFCURVE",
"649 438 CURVE SMOOTH",
"649 572 LINE SMOOTH",
"649 625 OFFCURVE",
"636 664 OFFCURVE",
"614 689 CURVE SMOOTH",
"592 713 OFFCURVE",
"560 724 OFFCURVE",
"525 724 CURVE SMOOTH",
"296 724 LINE SMOOTH",
"255 724 OFFCURVE",
"217 711 OFFCURVE",
"189 687 CURVE SMOOTH",
"161 663 OFFCURVE",
"144 628 OFFCURVE",
"144 587 CURVE SMOOTH",
"144 566 OFFCURVE",
"148 539 OFFCURVE",
"164 516 CURVE SMOOTH",
"179 493 OFFCURVE",
"205 474 OFFCURVE",
"249 466 CURVE SMOOTH",
"267 463 OFFCURVE",
"282 460 OFFCURVE",
"295 459 CURVE",
"319 455 OFFCURVE",
"335 451 OFFCURVE",
"343 441 CURVE",
"346 436 OFFCURVE",
"348 428 OFFCURVE",
"348 419 CURVE SMOOTH",
"348 400 OFFCURVE",
"337 391 OFFCURVE",
"321 387 CURVE",
"304 382 OFFCURVE",
"280 382 OFFCURVE",
"252 382 CURVE SMOOTH",
"49 382 LINE",
"40 421 OFFCURVE",
"34 459 OFFCURVE",
"34 500 CURVE SMOOTH",
"34 628 OFFCURVE",
"86 745 OFFCURVE",
"171 830 CURVE SMOOTH",
"255 914 OFFCURVE",
"372 966 OFFCURVE",
"500 966 CURVE SMOOTH"
);
}
);
width = 1000;
}
);
unicode = F00A;
},
{
glyphname = Behance;
layers = (
{
layerId = "9777D1EF-E2A1-4411-A5D2-A69EAB6CED10";
name = Regular;
paths = (
{
closed = 1;
nodes = (
"702 417 OFFCURVE",
"715 412 OFFCURVE",
"724 403 CURVE SMOOTH",
"735 392 OFFCURVE",
"737 378 OFFCURVE",
"740 369 CURVE",
"625 369 LINE",
"626 377 OFFCURVE",
"632 389 OFFCURVE",
"641 399 CURVE SMOOTH",
"650 409 OFFCURVE",
"665 417 OFFCURVE",
"686 417 CURVE SMOOTH"
);
},
{
closed = 1;
nodes = (
"391 356 OFFCURVE",
"393 356 OFFCURVE",
"397 355 CURVE",
"405 354 OFFCURVE",
"414 348 OFFCURVE",
"421 336 CURVE",
"424 329 OFFCURVE",
"426 320 OFFCURVE",
"426 308 CURVE SMOOTH",
"426 269 OFFCURVE",
"403 263 OFFCURVE",
"384 263 CURVE SMOOTH",
"281 263 LINE",
"281 356 LINE",
"390 356 LINE SMOOTH"
);
},
{
closed = 1;
nodes = (
"412 452 OFFCURVE",
"408 441 OFFCURVE",
"403 436 CURVE SMOOTH",
"398 431 OFFCURVE",
"391 430 OFFCURVE",
"383 430 CURVE SMOOTH",
"281 430 LINE",
"281 506 LINE",
"375 506 LINE",
"390 506 LINE",
"390 506 OFFCURVE",
"391 506 OFFCURVE",
"394 506 CURVE",
"398 505 OFFCURVE",
"404 500 OFFCURVE",
"409 491 CURVE",
"411 486 OFFCURVE",
"412 480 OFFCURVE",
"412 471 CURVE SMOOTH"
);
},
{
closed = 1;
nodes = (
"832 308 OFFCURVE",
"832 313 OFFCURVE",
"833 322 CURVE",
"834 341 OFFCURVE",
"833 369 OFFCURVE",
"822 400 CURVE SMOOTH",
"817 415 OFFCURVE",
"808 430 OFFCURVE",
"796 443 CURVE SMOOTH",
"771 472 OFFCURVE",
"735 487 OFFCURVE",
"688 487 CURVE SMOOTH",
"647 487 OFFCURVE",
"616 476 OFFCURVE",
"594 461 CURVE SMOOTH",
"572 445 OFFCURVE",
"557 424 OFFCURVE",
"548 407 CURVE",
"539 387 OFFCURVE",
"534 368 OFFCURVE",
"531 353 CURVE",
"530 346 OFFCURVE",
"529 340 OFFCURVE",
"529 335 CURVE",
"528 330 OFFCURVE",
"528 328 OFFCURVE",
"528 328 CURVE",
"528 327 OFFCURVE",
"528 323 OFFCURVE",
"528 316 CURVE SMOOTH",
"528 300 OFFCURVE",
"532 277 OFFCURVE",
"543 251 CURVE SMOOTH",
"548 238 OFFCURVE",
"557 225 OFFCURVE",
"568 214 CURVE",
"595 184 OFFCURVE",
"634 169 OFFCURVE",
"687 169 CURVE SMOOTH",
"693 169 LINE SMOOTH",
"705 169 OFFCURVE",
"739 169 OFFCURVE",
"771 185 CURVE SMOOTH",
"802 200 OFFCURVE",
"830 228 OFFCURVE",
"830 281 CURVE SMOOTH",
"830 286 OFFCURVE",
"828 288 OFFCURVE",
"823 288 CURVE SMOOTH",
"754 288 LINE SMOOTH",
"750 288 OFFCURVE",
"747 282 OFFCURVE",
"747 281 CURVE SMOOTH",
"747 280 OFFCURVE",
"747 278 OFFCURVE",
"746 274 CURVE SMOOTH",
"745 270 OFFCURVE",
"743 265 OFFCURVE",
"738 260 CURVE SMOOTH",
"728 250 OFFCURVE",
"712 245 OFFCURVE",
"689 245 CURVE SMOOTH",
"687 245 LINE SMOOTH",
"682 245 OFFCURVE",
"667 246 OFFCURVE",
"652 254 CURVE SMOOTH",
"636 263 OFFCURVE",
"628 279 OFFCURVE",
"627 301 CURVE",
"826 301 LINE SMOOTH",
"830 301 OFFCURVE",
"832 303 OFFCURVE",
"832 307 CURVE SMOOTH"
);
},
{
closed = 1;
nodes = (
"526 302 OFFCURVE",
"526 305 OFFCURVE",
"526 311 CURVE SMOOTH",
"526 322 OFFCURVE",
"524 340 OFFCURVE",
"517 359 CURVE",
"509 378 OFFCURVE",
"493 394 OFFCURVE",
"473 402 CURVE",
"492 413 OFFCURVE",
"512 432 OFFCURVE",
"512 475 CURVE SMOOTH",
"512 544 OFFCURVE",
"468 588 OFFCURVE",
"393 588 CURVE SMOOTH",
"187 588 LINE SMOOTH",
"182 588 OFFCURVE",
"180 586 OFFCURVE",
"180 581 CURVE SMOOTH",
"180 184 LINE SMOOTH",
"180 179 OFFCURVE",
"182 177 OFFCURVE",
"187 177 CURVE SMOOTH",
"395 177 LINE SMOOTH",
"404 177 OFFCURVE",
"434 179 OFFCURVE",
"465 194 CURVE SMOOTH",
"493 207 OFFCURVE",
"526 238 OFFCURVE",
"526 301 CURVE SMOOTH"
);
},
{
closed = 1;
nodes = (
"596 523 LINE SMOOTH",
"596 519 OFFCURVE",
"598 517 OFFCURVE",
"602 517 CURVE SMOOTH",
"766 517 LINE SMOOTH",
"771 517 OFFCURVE",
"773 519 OFFCURVE",
"773 523 CURVE SMOOTH",
"773 572 LINE SMOOTH",
"773 577 OFFCURVE",
"771 579 OFFCURVE",
"766 579 CURVE SMOOTH",
"602 579 LINE SMOOTH",
"598 579 OFFCURVE",
"596 577 OFFCURVE",
"596 572 CURVE SMOOTH"
);
},
{
closed = 1;
nodes = (
"958 973 OFFCURVE",
"969 963 OFFCURVE",
"969 950 CURVE SMOOTH",
"969 50 LINE SMOOTH",
"969 37 OFFCURVE",
"958 27 OFFCURVE",
"945 27 CURVE SMOOTH",
"55 27 LINE SMOOTH",
"42 27 OFFCURVE",
"31 37 OFFCURVE",
"31 50 CURVE SMOOTH",
"31 950 LINE SMOOTH",
"31 963 OFFCURVE",
"42 973 OFFCURVE",
"55 973 CURVE SMOOTH",
"945 973 LINE SMOOTH"
);
}
);
width = 1000;
}
);
unicode = F00B;
},
{
glyphname = Reddit;
layers = (
{
layerId = "9777D1EF-E2A1-4411-A5D2-A69EAB6CED10";
name = Regular;
paths = (
{
closed = 1;
nodes = (
"636 281 OFFCURVE",
"641 283 OFFCURVE",
"646 283 CURVE SMOOTH",
"656 283 OFFCURVE",
"663 275 OFFCURVE",
"663 266 CURVE SMOOTH",
"663 257 OFFCURVE",
"660 256 OFFCURVE",
"648 245 CURVE",
"635 234 OFFCURVE",
"609 221 OFFCURVE",
"569 210 CURVE SMOOTH",
"549 205 OFFCURVE",
"525 202 OFFCURVE",
"498 202 CURVE SMOOTH",
"443 202 OFFCURVE",
"405 215 OFFCURVE",
"380 228 CURVE",
"367 234 OFFCURVE",
"358 240 OFFCURVE",
"353 245 CURVE",
"341 256 OFFCURVE",
"338 258 OFFCURVE",
"339 267 CURVE",
"339 276 OFFCURVE",
"348 284 OFFCURVE",
"357 283 CURVE",
"362 282 OFFCURVE",
"366 280 OFFCURVE",
"369 277 CURVE",
"369 277 OFFCURVE",
"372 275 OFFCURVE",
"377 271 CURVE",
"387 262 OFFCURVE",
"407 251 OFFCURVE",
"439 243 CURVE SMOOTH",
"455 239 OFFCURVE",
"475 237 OFFCURVE",
"498 237 CURVE SMOOTH",
"545 237 OFFCURVE",
"579 248 OFFCURVE",
"601 258 CURVE SMOOTH",
"612 263 OFFCURVE",
"620 267 OFFCURVE",
"625 272 CURVE",
"630 276 OFFCURVE",
"633 278 OFFCURVE",
"633 278 CURVE"
);
},
{
closed = 1;
nodes = (
"742 823 OFFCURVE",
"744 835 OFFCURVE",
"748 846 CURVE",
"755 844 LINE",
"764 841 OFFCURVE",
"771 833 OFFCURVE",
"768 824 CURVE",
"765 813 OFFCURVE",
"756 808 OFFCURVE",
"747 811 CURVE",
"742 812 LINE"
);
},
{
closed = 1;
nodes = (
"499 655 LINE",
"516 655 LINE",
"513 649 OFFCURVE",
"508 646 OFFCURVE",
"502 646 CURVE SMOOTH",
"499 646 OFFCURVE",
"497 646 OFFCURVE",
"496 647 CURVE",
"492 648 OFFCURVE",
"489 650 OFFCURVE",
"487 655 CURVE"
);
},
{
closed = 1;
nodes = (
"484 660 OFFCURVE",
"484 664 OFFCURVE",
"486 669 CURVE",
"487 672 LINE",
"499 672 LINE",
"523 672 LINE",
"518 657 LINE",
"518 657 OFFCURVE",
"517 656 OFFCURVE",
"516 655 CURVE",
"499 655 LINE",
"487 655 LINE"
);
},
{
closed = 1;
nodes = (
"499 672 LINE",
"487 672 LINE",
"564 890 LINE",
"748 846 LINE",
"744 835 OFFCURVE",
"742 823 OFFCURVE",
"742 812 CURVE",
"586 849 LINE",
"523 672 LINE"
);
},
{
closed = 1;
nodes = (
"606 369 OFFCURVE",
"577 399 OFFCURVE",
"577 436 CURVE SMOOTH",
"577 473 OFFCURVE",
"606 503 OFFCURVE",
"645 503 CURVE SMOOTH",
"682 503 OFFCURVE",
"712 473 OFFCURVE",
"712 436 CURVE SMOOTH",
"712 399 OFFCURVE",
"682 369 OFFCURVE",
"645 369 CURVE SMOOTH"
);
},
{
closed = 1;
nodes = (
"431 399 OFFCURVE",
"400 369 OFFCURVE",
"363 369 CURVE SMOOTH",
"326 369 OFFCURVE",
"296 399 OFFCURVE",
"296 436 CURVE SMOOTH",
"296 473 OFFCURVE",
"326 503 OFFCURVE",
"363 503 CURVE SMOOTH",
"400 503 OFFCURVE",
"431 473 OFFCURVE",
"431 436 CURVE SMOOTH"
);
},
{
closed = 1;
nodes = (
"789 588 LINE",
"790 589 OFFCURVE",
"791 590 OFFCURVE",
"792 591 CURVE",
"793 591 OFFCURVE",
"793 592 OFFCURVE",
"794 593 CURVE",
"799 590 OFFCURVE",
"804 586 OFFCURVE",
"809 583 CURVE",
"814 579 OFFCURVE",
"818 575 OFFCURVE",
"823 572 CURVE",
"819 569 OFFCURVE",
"816 567 OFFCURVE",
"813 564 CURVE"
);
},
{
closed = 1;
nodes = (
"907 447 OFFCURVE",
"911 450 OFFCURVE",
"914 453 CURVE",
"919 442 OFFCURVE",
"921 430 OFFCURVE",
"924 418 CURVE",
"923 417 OFFCURVE",
"923 417 OFFCURVE",
"922 417 CURVE",
"921 416 OFFCURVE",
"921 416 OFFCURVE",
"920 415 CURVE",
"903 445 LINE"
);
},
{
closed = 1;
nodes = (
"897 620 OFFCURVE",
"924 608 OFFCURVE",
"944 588 CURVE SMOOTH",
"964 568 OFFCURVE",
"976 540 OFFCURVE",
"976 511 CURVE SMOOTH",
"976 472 OFFCURVE",
"956 438 OFFCURVE",
"924 418 CURVE",
"923 424 OFFCURVE",
"921 430 OFFCURVE",
"920 436 CURVE SMOOTH",
"919 442 OFFCURVE",
"917 448 OFFCURVE",
"914 453 CURVE",
"931 468 OFFCURVE",
"942 488 OFFCURVE",
"942 511 CURVE SMOOTH",
"942 552 OFFCURVE",
"909 586 OFFCURVE",
"866 586 CURVE SMOOTH",
"851 586 OFFCURVE",
"836 581 OFFCURVE",
"823 572 CURVE",
"818 575 OFFCURVE",
"814 579 OFFCURVE",
"809 583 CURVE",
"804 586 OFFCURVE",
"799 590 OFFCURVE",
"794 593 CURVE",
"815 611 OFFCURVE",
"839 620 OFFCURVE",
"866 620 CURVE SMOOTH"
);
},
{
closed = 1;
nodes = (
"185 565 OFFCURVE",
"183 567 OFFCURVE",
"182 569 CURVE",
"180 570 OFFCURVE",
"178 572 OFFCURVE",
"176 573 CURVE",
"186 580 OFFCURVE",
"196 587 OFFCURVE",
"205 593 CURVE",
"206 592 OFFCURVE",
"208 591 OFFCURVE",
"211 588 CURVE",
"187 564 LINE"
);
},
{
closed = 1;
nodes = (
"80 415 LINE",
"77 416 OFFCURVE",
"75 418 OFFCURVE",
"74 419 CURVE",
"77 431 OFFCURVE",
"80 443 OFFCURVE",
"84 454 CURVE",
"86 453 OFFCURVE",
"88 451 OFFCURVE",
"90 450 CURVE",
"92 448 OFFCURVE",
"94 446 OFFCURVE",
"97 445 CURVE"
);
},
{
closed = 1;
nodes = (
"58 489 OFFCURVE",
"67 470 OFFCURVE",
"84 454 CURVE",
"80 443 OFFCURVE",
"77 431 OFFCURVE",
"74 419 CURVE",
"43 439 OFFCURVE",
"24 472 OFFCURVE",
"24 511 CURVE SMOOTH",
"24 540 OFFCURVE",
"36 568 OFFCURVE",
"56 588 CURVE SMOOTH",
"76 608 OFFCURVE",
"102 620 OFFCURVE",
"133 620 CURVE SMOOTH",
"161 620 OFFCURVE",
"185 611 OFFCURVE",
"205 593 CURVE",
"196 587 OFFCURVE",
"186 580 OFFCURVE",
"176 573 CURVE",
"162 582 OFFCURVE",
"148 586 OFFCURVE",
"133 586 CURVE SMOOTH",
"92 586 OFFCURVE",
"58 552 OFFCURVE",
"58 511 CURVE SMOOTH"
);
},
{
closed = 1;
nodes = (
"800 867 OFFCURVE",
"776 843 OFFCURVE",
"776 812 CURVE SMOOTH",
"776 781 OFFCURVE",
"800 757 OFFCURVE",
"831 757 CURVE SMOOTH",
"862 757 OFFCURVE",
"886 781 OFFCURVE",
"886 812 CURVE SMOOTH",
"886 843 OFFCURVE",
"862 867 OFFCURVE",
"831 867 CURVE SMOOTH"
);
},
{
closed = 1;
nodes = (
"782 723 OFFCURVE",
"742 763 OFFCURVE",
"742 812 CURVE",
"747 811 LINE",
"756 808 OFFCURVE",
"765 813 OFFCURVE",
"768 824 CURVE",
"771 833 OFFCURVE",
"764 841 OFFCURVE",
"755 844 CURVE",
"748 846 LINE",
"763 879 OFFCURVE",
"794 902 OFFCURVE",
"831 902 CURVE SMOOTH",
"882 902 OFFCURVE",
"921 863 OFFCURVE",
"921 812 CURVE SMOOTH",
"921 763 OFFCURVE",
"882 723 OFFCURVE",
"831 723 CURVE SMOOTH"
);
},
{
closed = 1;
nodes = (
"926 407 OFFCURVE",
"927 396 OFFCURVE",
"927 385 CURVE SMOOTH",
"927 306 OFFCURVE",
"880 234 OFFCURVE",
"802 182 CURVE SMOOTH",
"724 130 OFFCURVE",
"616 98 OFFCURVE",
"499 98 CURVE SMOOTH",
"380 98 OFFCURVE",
"275 130 OFFCURVE",
"197 182 CURVE SMOOTH",
"119 234 OFFCURVE",
"71 306 OFFCURVE",
"71 385 CURVE SMOOTH",
"71 397 OFFCURVE",
"73 408 OFFCURVE",
"74 419 CURVE",
"75 418 OFFCURVE",
"77 416 OFFCURVE",
"80 415 CURVE",
"97 445 LINE",
"94 446 OFFCURVE",
"92 448 OFFCURVE",
"90 450 CURVE",
"88 451 OFFCURVE",
"86 453 OFFCURVE",
"84 454 CURVE",
"101 499 OFFCURVE",
"132 539 OFFCURVE",
"176 573 CURVE",
"178 572 OFFCURVE",
"180 570 OFFCURVE",
"182 569 CURVE",
"183 567 OFFCURVE",
"185 565 OFFCURVE",
"187 564 CURVE",
"211 588 LINE",
"208 591 OFFCURVE",
"206 592 OFFCURVE",
"205 593 CURVE",
"280 640 OFFCURVE",
"378 669 OFFCURVE",
"487 672 CURVE",
"486 669 LINE",
"484 664 OFFCURVE",
"484 660 OFFCURVE",
"487 655 CURVE",
"376 652 OFFCURVE",
"277 622 OFFCURVE",
"205 574 CURVE SMOOTH",
"133 525 OFFCURVE",
"88 458 OFFCURVE",
"88 385 CURVE SMOOTH",
"88 310 OFFCURVE",
"135 243 OFFCURVE",
"209 194 CURVE SMOOTH",
"283 145 OFFCURVE",
"386 115 OFFCURVE",
"499 115 CURVE SMOOTH",
"612 115 OFFCURVE",
"716 145 OFFCURVE",
"790 194 CURVE SMOOTH",
"864 243 OFFCURVE",
"910 310 OFFCURVE",
"910 385 CURVE SMOOTH",
"910 458 OFFCURVE",
"866 524 OFFCURVE",
"795 573 CURVE SMOOTH",
"724 621 OFFCURVE",
"625 652 OFFCURVE",
"516 655 CURVE",
"517 656 OFFCURVE",
"518 657 OFFCURVE",
"518 657 CURVE",
"523 672 LINE",
"628 668 OFFCURVE",
"722 638 OFFCURVE",
"794 593 CURVE",
"793 592 OFFCURVE",
"793 591 OFFCURVE",
"792 591 CURVE",
"791 590 OFFCURVE",
"790 589 OFFCURVE",
"789 588 CURVE",
"813 564 LINE",
"816 567 OFFCURVE",
"819 569 OFFCURVE",
"823 572 CURVE",
"868 537 OFFCURVE",
"898 498 OFFCURVE",
"914 453 CURVE",
"911 450 OFFCURVE",
"907 447 OFFCURVE",
"903 445 CURVE",
"920 415 LINE",
"921 416 OFFCURVE",
"921 416 OFFCURVE",
"922 417 CURVE",
"923 417 OFFCURVE",
"923 417 OFFCURVE",
"924 418 CURVE"
);
},
{
closed = 1;
nodes = (
"893 454 OFFCURVE",
"849 519 OFFCURVE",
"778 564 CURVE SMOOTH",
"706 609 OFFCURVE",
"607 638 OFFCURVE",
"499 638 CURVE SMOOTH",
"391 638 OFFCURVE",
"292 609 OFFCURVE",
"221 564 CURVE SMOOTH",
"150 519 OFFCURVE",
"106 454 OFFCURVE",
"106 385 CURVE SMOOTH",
"106 316 OFFCURVE",
"150 252 OFFCURVE",
"221 207 CURVE SMOOTH",
"292 162 OFFCURVE",
"391 133 OFFCURVE",
"499 133 CURVE SMOOTH",
"607 133 OFFCURVE",
"706 162 OFFCURVE",
"778 207 CURVE SMOOTH",
"849 252 OFFCURVE",
"893 316 OFFCURVE",
"893 385 CURVE SMOOTH"
);
},
{
closed = 1;
nodes = (
"508 646 OFFCURVE",
"513 649 OFFCURVE",
"516 655 CURVE",
"625 652 OFFCURVE",
"724 621 OFFCURVE",
"795 573 CURVE SMOOTH",
"866 524 OFFCURVE",
"910 458 OFFCURVE",
"910 385 CURVE SMOOTH",
"910 310 OFFCURVE",
"864 243 OFFCURVE",
"790 194 CURVE SMOOTH",
"716 145 OFFCURVE",
"612 115 OFFCURVE",
"499 115 CURVE SMOOTH",
"386 115 OFFCURVE",
"283 145 OFFCURVE",
"209 194 CURVE SMOOTH",
"135 243 OFFCURVE",
"88 310 OFFCURVE",
"88 385 CURVE SMOOTH",
"88 458 OFFCURVE",
"133 525 OFFCURVE",
"205 574 CURVE SMOOTH",
"277 622 OFFCURVE",
"376 652 OFFCURVE",
"487 655 CURVE",
"489 650 OFFCURVE",
"492 648 OFFCURVE",
"496 647 CURVE",
"497 646 OFFCURVE",
"499 646 OFFCURVE",
"502 646 CURVE SMOOTH"
);
},
{
closed = 1;
nodes = (
"800 757 OFFCURVE",
"776 781 OFFCURVE",
"776 812 CURVE SMOOTH",
"776 843 OFFCURVE",
"800 867 OFFCURVE",
"831 867 CURVE SMOOTH",
"862 867 OFFCURVE",
"886 843 OFFCURVE",
"886 812 CURVE SMOOTH",
"886 781 OFFCURVE",
"862 757 OFFCURVE",
"831 757 CURVE SMOOTH"
);
},
{
closed = 1;
nodes = (
"898 498 OFFCURVE",
"868 537 OFFCURVE",
"823 572 CURVE",
"836 581 OFFCURVE",
"851 586 OFFCURVE",
"866 586 CURVE SMOOTH",
"909 586 OFFCURVE",
"942 552 OFFCURVE",
"942 511 CURVE SMOOTH",
"942 488 OFFCURVE",
"931 468 OFFCURVE",
"914 453 CURVE"
);
},
{
closed = 1;
nodes = (
"58 552 OFFCURVE",
"92 586 OFFCURVE",
"133 586 CURVE SMOOTH",
"148 586 OFFCURVE",
"162 582 OFFCURVE",
"176 573 CURVE",
"132 539 OFFCURVE",
"101 499 OFFCURVE",
"84 454 CURVE",
"67 470 OFFCURVE",
"58 489 OFFCURVE",
"58 511 CURVE SMOOTH"
);
}
);
width = 1000;
}
);
unicode = F00C;
},
{
glyphname = GooglePlus;
layers = (
{
layerId = "9777D1EF-E2A1-4411-A5D2-A69EAB6CED10";
name = Regular;
paths = (
{
closed = 1;
nodes = (
"800 641 LINE",
"973 641 LINE",
"973 54 LINE SMOOTH",
"973 41 OFFCURVE",
"962 30 OFFCURVE",
"949 30 CURVE SMOOTH",
"557 30 LINE",
"562 48 OFFCURVE",
"565 67 OFFCURVE",
"565 88 CURVE SMOOTH",
"565 135 OFFCURVE",
"546 174 OFFCURVE",
"519 207 CURVE SMOOTH",
"491 240 OFFCURVE",
"457 268 OFFCURVE",
"426 292 CURVE SMOOTH",
"377 330 LINE SMOOTH",
"361 342 OFFCURVE",
"341 358 OFFCURVE",
"341 389 CURVE SMOOTH",
"341 420 OFFCURVE",
"362 439 OFFCURVE",
"379 456 CURVE",
"408 479 OFFCURVE",
"436 502 OFFCURVE",
"457 533 CURVE SMOOTH",
"477 564 OFFCURVE",
"490 600 OFFCURVE",
"490 651 CURVE SMOOTH",
"490 698 OFFCURVE",
"477 734 OFFCURVE",
"461 762 CURVE SMOOTH",
"444 790 OFFCURVE",
"423 810 OFFCURVE",
"407 825 CURVE",
"490 825 LINE",
"567 887 LINE",
"278 887 LINE SMOOTH",
"242 887 OFFCURVE",
"203 884 OFFCURVE",
"163 873 CURVE SMOOTH",
"123 862 OFFCURVE",
"82 842 OFFCURVE",
"43 810 CURVE",
"42 809 OFFCURVE",
"40 808 OFFCURVE",
"39 807 CURVE SMOOTH",
"38 806 OFFCURVE",
"36 804 OFFCURVE",
"35 803 CURVE",
"35 953 LINE SMOOTH",
"35 966 OFFCURVE",
"46 977 OFFCURVE",
"59 977 CURVE SMOOTH",
"949 977 LINE SMOOTH",
"962 977 OFFCURVE",
"973 966 OFFCURVE",
"973 953 CURVE SMOOTH",
"973 713 LINE",
"800 713 LINE",
"800 887 LINE",
"725 887 LINE",
"725 713 LINE",
"552 713 LINE",
"552 641 LINE",
"725 641 LINE",
"725 466 LINE",
"800 466 LINE"
);
},
{
closed = 1;
nodes = (
"326 208 OFFCURVE",
"350 192 OFFCURVE",
"372 177 CURVE SMOOTH",
"415 148 OFFCURVE",
"448 121 OFFCURVE",
"466 93 CURVE SMOOTH",
"475 78 OFFCURVE",
"479 62 OFFCURVE",
"479 45 CURVE SMOOTH",
"479 38 OFFCURVE",
"478 34 OFFCURVE",
"477 30 CURVE",
"59 30 LINE SMOOTH",
"46 30 OFFCURVE",
"35 41 OFFCURVE",
"35 54 CURVE SMOOTH",
"35 148 LINE",
"64 183 OFFCURVE",
"106 200 OFFCURVE",
"125 207 CURVE",
"153 216 OFFCURVE",
"186 222 OFFCURVE",
"214 225 CURVE SMOOTH",
"227 226 OFFCURVE",
"239 227 OFFCURVE",
"249 228 CURVE SMOOTH",
"259 229 OFFCURVE",
"266 229 OFFCURVE",
"269 229 CURVE SMOOTH",
"276 229 OFFCURVE",
"281 229 OFFCURVE",
"286 229 CURVE SMOOTH",
"290 229 OFFCURVE",
"295 228 OFFCURVE",
"300 227 CURVE"
);
},
{
closed = 1;
nodes = (
"379 568 OFFCURVE",
"370 531 OFFCURVE",
"343 500 CURVE SMOOTH",
"320 473 OFFCURVE",
"286 466 OFFCURVE",
"251 466 CURVE SMOOTH",
"192 466 OFFCURVE",
"152 500 OFFCURVE",
"125 546 CURVE SMOOTH",
"98 592 OFFCURVE",
"86 647 OFFCURVE",
"86 694 CURVE SMOOTH",
"86 729 OFFCURVE",
"89 766 OFFCURVE",
"113 795 CURVE SMOOTH",
"136 822 OFFCURVE",
"173 840 OFFCURVE",
"208 840 CURVE SMOOTH",
"265 840 OFFCURVE",
"308 802 OFFCURVE",
"337 751 CURVE SMOOTH",
"365 700 OFFCURVE",
"379 637 OFFCURVE",
"379 588 CURVE SMOOTH"
);
},
{
closed = 1;
nodes = (
"213 317 OFFCURVE",
"235 292 OFFCURVE",
"254 267 CURVE",
"241 266 OFFCURVE",
"225 266 OFFCURVE",
"207 266 CURVE SMOOTH",
"170 266 OFFCURVE",
"128 262 OFFCURVE",
"89 251 CURVE SMOOTH",
"69 246 OFFCURVE",
"51 237 OFFCURVE",
"35 225 CURVE",
"35 463 LINE",
"72 434 OFFCURVE",
"122 411 OFFCURVE",
"183 411 CURVE SMOOTH",
"196 411 OFFCURVE",
"211 412 OFFCURVE",
"226 414 CURVE",
"219 397 OFFCURVE",
"213 384 OFFCURVE",
"213 360 CURVE SMOOTH"
);
}
);
width = 1000;
}
);
unicode = F00D;
},
{
glyphname = YouTube;
layers = (
{
layerId = "9777D1EF-E2A1-4411-A5D2-A69EAB6CED10";
name = Regular;
paths = (
{
closed = 1;
nodes = (
"969 169 LINE SMOOTH",
"969 156 OFFCURVE",
"958 146 OFFCURVE",
"945 146 CURVE SMOOTH",
"55 146 LINE SMOOTH",
"42 146 OFFCURVE",
"31 156 OFFCURVE",
"31 169 CURVE SMOOTH",
"31 835 LINE SMOOTH",
"31 848 OFFCURVE",
"42 858 OFFCURVE",
"55 858 CURVE SMOOTH",
"945 858 LINE SMOOTH",
"958 858 OFFCURVE",
"969 848 OFFCURVE",
"969 835 CURVE SMOOTH"
);
},
{
closed = 1;
nodes = (
"365 294 LINE",
"693 500 LINE",
"365 706 LINE"
);
}
);
width = 1000;
}
);
unicode = F00E;
},
{
glyphname = Vimeo;
layers = (
{
layerId = "9777D1EF-E2A1-4411-A5D2-A69EAB6CED10";
name = Regular;
paths = (
{
closed = 1;
nodes = (
"794 667 OFFCURVE",
"793 686 OFFCURVE",
"788 703 CURVE",
"785 710 OFFCURVE",
"783 715 OFFCURVE",
"778 722 CURVE",
"766 737 OFFCURVE",
"749 744 OFFCURVE",
"730 748 CURVE",
"710 751 OFFCURVE",
"689 750 OFFCURVE",
"672 747 CURVE",
"659 744 OFFCURVE",
"629 734 OFFCURVE",
"598 711 CURVE SMOOTH",
"567 687 OFFCURVE",
"536 653 OFFCURVE",
"520 604 CURVE",
"534 604 LINE",
"569 607 OFFCURVE",
"591 600 OFFCURVE",
"598 573 CURVE",
"603 558 OFFCURVE",
"601 525 OFFCURVE",
"590 498 CURVE SMOOTH",
"578 470 OFFCURVE",
"567 450 OFFCURVE",
"555 430 CURVE SMOOTH",
"543 410 OFFCURVE",
"529 396 OFFCURVE",
"510 394 CURVE SMOOTH",
"501 393 OFFCURVE",
"491 398 OFFCURVE",
"481 409 CURVE",
"477 413 OFFCURVE",
"473 419 OFFCURVE",
"469 424 CURVE",
"457 445 OFFCURVE",
"451 471 OFFCURVE",
"447 499 CURVE SMOOTH",
"445 512 OFFCURVE",
"444 526 OFFCURVE",
"443 539 CURVE SMOOTH",
"442 552 OFFCURVE",
"440 564 OFFCURVE",
"438 575 CURVE SMOOTH",
"435 589 OFFCURVE",
"433 604 OFFCURVE",
"430 621 CURVE SMOOTH",
"427 638 OFFCURVE",
"424 653 OFFCURVE",
"419 668 CURVE",
"418 672 OFFCURVE",
"416 676 OFFCURVE",
"415 680 CURVE",
"404 703 OFFCURVE",
"389 723 OFFCURVE",
"370 730 CURVE",
"346 737 OFFCURVE",
"316 727 OFFCURVE",
"299 716 CURVE SMOOTH",
"271 699 OFFCURVE",
"246 680 OFFCURVE",
"223 659 CURVE SMOOTH",
"200 638 OFFCURVE",
"176 617 OFFCURVE",
"152 598 CURVE",
"152 594 LINE",
"155 591 OFFCURVE",
"158 587 OFFCURVE",
"160 583 CURVE",
"163 580 OFFCURVE",
"165 577 OFFCURVE",
"168 574 CURVE",
"170 571 OFFCURVE",
"173 569 OFFCURVE",
"178 568 CURVE",
"186 567 OFFCURVE",
"194 567 OFFCURVE",
"202 570 CURVE",
"218 575 OFFCURVE",
"234 581 OFFCURVE",
"247 578 CURVE",
"254 577 OFFCURVE",
"260 571 OFFCURVE",
"265 562 CURVE",
"266 559 OFFCURVE",
"268 557 OFFCURVE",
"269 555 CURVE",
"270 552 OFFCURVE",
"272 549 OFFCURVE",
"273 546 CURVE",
"272 547 OFFCURVE",
"272 547 OFFCURVE",
"272 548 CURVE",
"272 547 OFFCURVE",
"272 547 OFFCURVE",
"273 546 CURVE",
"277 537 OFFCURVE",
"280 527 OFFCURVE",
"283 518 CURVE",
"285 508 OFFCURVE",
"288 498 OFFCURVE",
"291 489 CURVE SMOOTH",
"303 456 OFFCURVE",
"312 422 OFFCURVE",
"321 383 CURVE SMOOTH",
"326 362 OFFCURVE",
"332 340 OFFCURVE",
"339 315 CURVE",
"345 290 OFFCURVE",
"354 268 OFFCURVE",
"365 248 CURVE SMOOTH",
"377 225 OFFCURVE",
"392 209 OFFCURVE",
"412 201 CURVE",
"425 194 OFFCURVE",
"444 196 OFFCURVE",
"461 200 CURVE SMOOTH",
"477 204 OFFCURVE",
"493 210 OFFCURVE",
"504 217 CURVE SMOOTH",
"563 252 OFFCURVE",
"606 301 OFFCURVE",
"645 352 CURVE SMOOTH",
"690 412 OFFCURVE",
"725 476 OFFCURVE",
"749 530 CURVE SMOOTH",
"773 584 OFFCURVE",
"786 627 OFFCURVE",
"790 646 CURVE SMOOTH"
);
},
{
closed = 1;
nodes = (
"958 973 OFFCURVE",
"969 963 OFFCURVE",
"969 950 CURVE SMOOTH",
"969 50 LINE SMOOTH",
"969 37 OFFCURVE",
"958 27 OFFCURVE",
"945 27 CURVE SMOOTH",
"55 27 LINE SMOOTH",
"42 27 OFFCURVE",
"31 37 OFFCURVE",
"31 50 CURVE SMOOTH",
"31 950 LINE SMOOTH",
"31 963 OFFCURVE",
"42 973 OFFCURVE",
"55 973 CURVE SMOOTH",
"945 973 LINE SMOOTH"
);
}
);
width = 1000;
}
);
unicode = F00F;
},
{
glyphname = Flickr;
layers = (
{
layerId = "9777D1EF-E2A1-4411-A5D2-A69EAB6CED10";
name = Regular;
paths = (
{
closed = 1;
nodes = (
"485 549 OFFCURVE",
"465 594 OFFCURVE",
"433 626 CURVE SMOOTH",
"401 658 OFFCURVE",
"356 678 OFFCURVE",
"307 678 CURVE SMOOTH",
"258 678 OFFCURVE",
"213 658 OFFCURVE",
"181 626 CURVE SMOOTH",
"149 594 OFFCURVE",
"129 549 OFFCURVE",
"129 500 CURVE SMOOTH",
"129 451 OFFCURVE",
"149 406 OFFCURVE",
"181 374 CURVE SMOOTH",
"213 342 OFFCURVE",
"258 322 OFFCURVE",
"307 322 CURVE SMOOTH",
"356 322 OFFCURVE",
"401 342 OFFCURVE",
"433 374 CURVE SMOOTH",
"465 406 OFFCURVE",
"485 451 OFFCURVE",
"485 500 CURVE SMOOTH"
);
},
{
closed = 1;
nodes = (
"871 549 OFFCURVE",
"851 594 OFFCURVE",
"819 626 CURVE SMOOTH",
"787 658 OFFCURVE",
"742 678 OFFCURVE",
"693 678 CURVE SMOOTH",
"644 678 OFFCURVE",
"599 658 OFFCURVE",
"567 626 CURVE SMOOTH",
"535 594 OFFCURVE",
"515 549 OFFCURVE",
"515 500 CURVE SMOOTH",
"515 451 OFFCURVE",
"535 406 OFFCURVE",
"567 374 CURVE SMOOTH",
"599 342 OFFCURVE",
"644 322 OFFCURVE",
"693 322 CURVE SMOOTH",
"742 322 OFFCURVE",
"787 342 OFFCURVE",
"819 374 CURVE SMOOTH",
"851 406 OFFCURVE",
"871 451 OFFCURVE",
"871 500 CURVE SMOOTH"
);
},
{
closed = 1;
nodes = (
"958 973 OFFCURVE",
"969 963 OFFCURVE",
"969 950 CURVE SMOOTH",
"969 50 LINE SMOOTH",
"969 37 OFFCURVE",
"958 27 OFFCURVE",
"945 27 CURVE SMOOTH",
"55 27 LINE SMOOTH",
"42 27 OFFCURVE",
"31 37 OFFCURVE",
"31 50 CURVE SMOOTH",
"31 950 LINE SMOOTH",
"31 963 OFFCURVE",
"42 973 OFFCURVE",
"55 973 CURVE SMOOTH",
"945 973 LINE SMOOTH"
);
}
);
width = 1000;
}
);
unicode = F010;
},
{
glyphname = SlideShare;
layers = (
{
layerId = "9777D1EF-E2A1-4411-A5D2-A69EAB6CED10";
name = Regular;
paths = (
{
closed = 1;
nodes = (
"403 691 OFFCURVE",
"430 678 OFFCURVE",
"450 658 CURVE SMOOTH",
"470 638 OFFCURVE",
"483 611 OFFCURVE",
"483 580 CURVE SMOOTH",
"483 549 OFFCURVE",
"470 522 OFFCURVE",
"450 502 CURVE SMOOTH",
"430 482 OFFCURVE",
"403 469 OFFCURVE",
"372 469 CURVE SMOOTH",
"341 469 OFFCURVE",
"314 482 OFFCURVE",
"294 502 CURVE SMOOTH",
"274 522 OFFCURVE",
"261 549 OFFCURVE",
"261 580 CURVE SMOOTH",
"261 611 OFFCURVE",
"274 638 OFFCURVE",
"294 658 CURVE SMOOTH",
"314 678 OFFCURVE",
"341 691 OFFCURVE",
"372 691 CURVE SMOOTH"
);
},
{
closed = 1;
nodes = (
"666 691 OFFCURVE",
"693 678 OFFCURVE",
"713 658 CURVE SMOOTH",
"733 638 OFFCURVE",
"746 611 OFFCURVE",
"746 580 CURVE SMOOTH",
"746 549 OFFCURVE",
"733 522 OFFCURVE",
"713 502 CURVE SMOOTH",
"693 482 OFFCURVE",
"666 469 OFFCURVE",
"635 469 CURVE SMOOTH",
"604 469 OFFCURVE",
"577 482 OFFCURVE",
"557 502 CURVE SMOOTH",
"537 522 OFFCURVE",
"524 549 OFFCURVE",
"524 580 CURVE SMOOTH",
"524 611 OFFCURVE",
"537 638 OFFCURVE",
"557 658 CURVE SMOOTH",
"577 678 OFFCURVE",
"604 691 OFFCURVE",
"635 691 CURVE SMOOTH"
);
},
{
closed = 1;
nodes = (
"640 312 OFFCURVE",
"611 291 OFFCURVE",
"568 291 CURVE SMOOTH",
"548 291 OFFCURVE",
"531 293 OFFCURVE",
"517 297 CURVE SMOOTH",
"513 298 OFFCURVE",
"509 299 OFFCURVE",
"505 300 CURVE",
"502 301 OFFCURVE",
"498 303 OFFCURVE",
"494 304 CURVE SMOOTH",
"490 305 OFFCURVE",
"486 306 OFFCURVE",
"483 307 CURVE",
"483 109 LINE SMOOTH",
"483 82 OFFCURVE",
"469 64 OFFCURVE",
"450 50 CURVE SMOOTH",
"431 36 OFFCURVE",
"408 29 OFFCURVE",
"389 29 CURVE SMOOTH",
"370 29 OFFCURVE",
"341 35 OFFCURVE",
"313 52 CURVE SMOOTH",
"285 68 OFFCURVE",
"257 97 OFFCURVE",
"238 142 CURVE",
"225 179 OFFCURVE",
"220 219 OFFCURVE",
"223 271 CURVE SMOOTH",
"224 296 OFFCURVE",
"230 324 OFFCURVE",
"240 355 CURVE",
"209 368 OFFCURVE",
"179 385 OFFCURVE",
"156 398 CURVE SMOOTH",
"143 405 OFFCURVE",
"130 413 OFFCURVE",
"118 421 CURVE",
"109 426 OFFCURVE",
"102 432 OFFCURVE",
"95 437 CURVE",
"90 441 OFFCURVE",
"86 444 OFFCURVE",
"82 448 CURVE",
"65 462 OFFCURVE",
"54 474 OFFCURVE",
"48 485 CURVE",
"42 495 OFFCURVE",
"39 501 OFFCURVE",
"38 503 CURVE",
"35 508 OFFCURVE",
"31 517 OFFCURVE",
"38 522 CURVE",
"44 527 OFFCURVE",
"54 527 OFFCURVE",
"67 522 CURVE",
"70 521 OFFCURVE",
"74 519 OFFCURVE",
"78 516 CURVE SMOOTH",
"87 509 OFFCURVE",
"100 500 OFFCURVE",
"127 485 CURVE",
"136 481 OFFCURVE",
"146 476 OFFCURVE",
"157 469 CURVE",
"160 468 OFFCURVE",
"163 466 OFFCURVE",
"166 465 CURVE SMOOTH",
"169 464 OFFCURVE",
"172 462 OFFCURVE",
"175 461 CURVE",
"196 450 OFFCURVE",
"218 444 OFFCURVE",
"243 437 CURVE SMOOTH",
"256 433 OFFCURVE",
"268 430 OFFCURVE",
"281 428 CURVE",
"459 428 LINE SMOOTH",
"466 428 OFFCURVE",
"474 421 OFFCURVE",
"484 411 CURVE SMOOTH",
"489 406 OFFCURVE",
"494 400 OFFCURVE",
"499 394 CURVE SMOOTH",
"504 388 OFFCURVE",
"510 383 OFFCURVE",
"517 378 CURVE SMOOTH",
"520 376 OFFCURVE",
"524 374 OFFCURVE",
"527 372 CURVE SMOOTH",
"530 370 OFFCURVE",
"534 368 OFFCURVE",
"538 367 CURVE",
"593 348 OFFCURVE",
"628 364 OFFCURVE",
"644 387 CURVE SMOOTH",
"663 414 OFFCURVE",
"672 428 OFFCURVE",
"692 420 CURVE SMOOTH",
"703 416 OFFCURVE",
"703 402 OFFCURVE",
"697 386 CURVE SMOOTH",
"691 369 OFFCURVE",
"679 350 OFFCURVE",
"667 337 CURVE"
);
},
{
closed = 1;
nodes = (
"969 520 OFFCURVE",
"965 511 OFFCURVE",
"962 506 CURVE",
"962 505 OFFCURVE",
"961 501 OFFCURVE",
"959 496 CURVE",
"954 485 OFFCURVE",
"942 470 OFFCURVE",
"922 451 CURVE SMOOTH",
"901 432 OFFCURVE",
"870 416 OFFCURVE",
"843 401 CURVE SMOOTH",
"820 388 OFFCURVE",
"791 371 OFFCURVE",
"760 358 CURVE",
"779 297 OFFCURVE",
"780 245 OFFCURVE",
"776 206 CURVE SMOOTH",
"771 162 OFFCURVE",
"755 117 OFFCURVE",
"728 89 CURVE SMOOTH",
"701 60 OFFCURVE",
"673 43 OFFCURVE",
"646 37 CURVE SMOOTH",
"632 34 OFFCURVE",
"620 32 OFFCURVE",
"611 32 CURVE SMOOTH",
"592 32 OFFCURVE",
"569 39 OFFCURVE",
"550 53 CURVE SMOOTH",
"531 67 OFFCURVE",
"517 85 OFFCURVE",
"517 112 CURVE SMOOTH",
"517 297 LINE",
"532 294 OFFCURVE",
"549 291 OFFCURVE",
"568 291 CURVE SMOOTH",
"611 291 OFFCURVE",
"640 312 OFFCURVE",
"667 337 CURVE",
"679 350 OFFCURVE",
"691 369 OFFCURVE",
"697 386 CURVE SMOOTH",
"703 402 OFFCURVE",
"703 416 OFFCURVE",
"692 420 CURVE SMOOTH",
"672 428 OFFCURVE",
"663 414 OFFCURVE",
"644 387 CURVE SMOOTH",
"628 364 OFFCURVE",
"593 348 OFFCURVE",
"538 367 CURVE SMOOTH",
"530 370 OFFCURVE",
"524 374 OFFCURVE",
"517 378 CURVE",
"517 400 LINE SMOOTH",
"517 405 OFFCURVE",
"518 410 OFFCURVE",
"519 415 CURVE",
"520 418 OFFCURVE",
"520 420 OFFCURVE",
"521 421 CURVE SMOOTH",
"528 428 OFFCURVE",
"537 430 OFFCURVE",
"541 430 CURVE SMOOTH",
"719 430 LINE",
"746 435 OFFCURVE",
"773 445 OFFCURVE",
"796 453 CURVE SMOOTH",
"809 458 OFFCURVE",
"821 463 OFFCURVE",
"833 468 CURVE",
"836 469 OFFCURVE",
"839 471 OFFCURVE",
"843 472 CURVE",
"848 475 OFFCURVE",
"853 478 OFFCURVE",
"858 480 CURVE",
"862 482 OFFCURVE",
"866 484 OFFCURVE",
"870 487 CURVE",
"883 494 OFFCURVE",
"894 500 OFFCURVE",
"901 505 CURVE SMOOTH",
"908 510 OFFCURVE",
"915 514 OFFCURVE",
"920 517 CURVE",
"923 519 OFFCURVE",
"925 521 OFFCURVE",
"927 522 CURVE SMOOTH",
"929 523 OFFCURVE",
"931 524 OFFCURVE",
"933 525 CURVE",
"946 530 OFFCURVE",
"956 530 OFFCURVE",
"962 525 CURVE"
);
},
{
closed = 1;
nodes = (
"127 485 LINE",
"100 500 OFFCURVE",
"87 509 OFFCURVE",
"78 516 CURVE",
"78 946 LINE SMOOTH",
"78 961 OFFCURVE",
"89 971 OFFCURVE",
"102 971 CURVE SMOOTH",
"895 971 LINE SMOOTH",
"910 971 OFFCURVE",
"920 961 OFFCURVE",
"920 946 CURVE SMOOTH",
"920 517 LINE",
"915 514 OFFCURVE",
"908 510 OFFCURVE",
"901 505 CURVE SMOOTH",
"894 500 OFFCURVE",
"883 494 OFFCURVE",
"870 487 CURVE",
"870 921 LINE",
"127 921 LINE"
);
},
{
closed = 1;
nodes = (
"90 439 OFFCURVE",
"85 443 OFFCURVE",
"82 448 CURVE",
"86 444 OFFCURVE",
"90 441 OFFCURVE",
"95 437 CURVE"
);
},
{
closed = 1;
nodes = (
"256 432 OFFCURVE",
"229 440 OFFCURVE",
"209 447 CURVE SMOOTH",
"197 451 OFFCURVE",
"186 456 OFFCURVE",
"175 461 CURVE",
"833 468 LINE",
"809 457 OFFCURVE",
"786 449 OFFCURVE",
"759 441 CURVE",
"746 436 OFFCURVE",
"732 433 OFFCURVE",
"719 430 CURVE",
"541 430 LINE SMOOTH",
"537 430 OFFCURVE",
"528 428 OFFCURVE",
"521 421 CURVE SMOOTH",
"520 420 OFFCURVE",
"520 418 OFFCURVE",
"519 415 CURVE",
"518 410 OFFCURVE",
"517 405 OFFCURVE",
"517 400 CURVE SMOOTH",
"517 378 LINE",
"510 383 OFFCURVE",
"504 388 OFFCURVE",
"499 394 CURVE",
"488 406 OFFCURVE",
"478 416 OFFCURVE",
"470 423 CURVE",
"466 426 OFFCURVE",
"462 428 OFFCURVE",
"459 428 CURVE SMOOTH",
"281 428 LINE"
);
}
);
width = 1000;
}
);
unicode = F011;
},
{
glyphname = Picassa;
layers = (
{
layerId = "9777D1EF-E2A1-4411-A5D2-A69EAB6CED10";
name = Regular;
paths = (
{
closed = 1;
nodes = (
"813 853 OFFCURVE",
"871 795 OFFCURVE",
"910 727 CURVE SMOOTH",
"949 658 OFFCURVE",
"971 580 OFFCURVE",
"971 499 CURVE SMOOTH",
"971 446 OFFCURVE",
"962 395 OFFCURVE",
"944 346 CURVE",
"744 346 LINE",
"744 896 LINE"
);
},
{
closed = 1;
nodes = (
"923 297 LINE",
"887 222 OFFCURVE",
"832 161 OFFCURVE",
"767 116 CURVE SMOOTH",
"702 71 OFFCURVE",
"624 43 OFFCURVE",
"543 35 CURVE",
"457 35 LINE",
"405 40 OFFCURVE",
"355 53 OFFCURVE",
"307 74 CURVE",
"307 297 LINE"
);
},
{
closed = 1;
nodes = (
"29 587 OFFCURVE",
"54 670 OFFCURVE",
"98 742 CURVE SMOOTH",
"142 814 OFFCURVE",
"206 873 OFFCURVE",
"285 913 CURVE",
"286 912 OFFCURVE",
"291 908 OFFCURVE",
"300 900 CURVE SMOOTH",
"309 892 OFFCURVE",
"320 882 OFFCURVE",
"333 871 CURVE SMOOTH",
"346 860 OFFCURVE",
"359 847 OFFCURVE",
"374 834 CURVE",
"403 807 OFFCURVE",
"431 783 OFFCURVE",
"449 767 CURVE SMOOTH",
"458 759 OFFCURVE",
"463 754 OFFCURVE",
"464 753 CURVE",
"463 752 OFFCURVE",
"452 742 OFFCURVE",
"431 724 CURVE SMOOTH",
"410 705 OFFCURVE",
"385 682 OFFCURVE",
"355 655 CURVE SMOOTH",
"324 628 OFFCURVE",
"292 598 OFFCURVE",
"257 567 CURVE SMOOTH",
"222 536 OFFCURVE",
"189 506 OFFCURVE",
"158 479 CURVE SMOOTH",
"127 451 OFFCURVE",
"102 428 OFFCURVE",
"81 409 CURVE SMOOTH",
"60 390 OFFCURVE",
"48 380 OFFCURVE",
"46 378 CURVE",
"35 419 OFFCURVE",
"29 460 OFFCURVE",
"29 499 CURVE SMOOTH"
);
},
{
closed = 1;
nodes = (
"169 154 OFFCURVE",
"102 232 OFFCURVE",
"63 327 CURVE",
"64 328 OFFCURVE",
"69 332 OFFCURVE",
"78 341 CURVE",
"87 349 OFFCURVE",
"99 359 OFFCURVE",
"112 372 CURVE",
"125 384 OFFCURVE",
"140 397 OFFCURVE",
"156 411 CURVE SMOOTH",
"172 425 OFFCURVE",
"187 439 OFFCURVE",
"201 452 CURVE SMOOTH",
"215 465 OFFCURVE",
"227 476 OFFCURVE",
"238 485 CURVE",
"248 494 OFFCURVE",
"254 499 OFFCURVE",
"257 502 CURVE",
"257 101 LINE"
);
},
{
closed = 1;
nodes = (
"694 612 LINE",
"691 615 OFFCURVE",
"681 624 OFFCURVE",
"663 641 CURVE SMOOTH",
"645 657 OFFCURVE",
"623 677 OFFCURVE",
"597 700 CURVE SMOOTH",
"571 723 OFFCURVE",
"543 748 OFFCURVE",
"514 775 CURVE SMOOTH",
"454 828 OFFCURVE",
"401 876 OFFCURVE",
"365 908 CURVE SMOOTH",
"347 924 OFFCURVE",
"337 933 OFFCURVE",
"335 935 CURVE",
"390 954 OFFCURVE",
"444 965 OFFCURVE",
"500 965 CURVE SMOOTH",
"568 965 OFFCURVE",
"633 951 OFFCURVE",
"694 923 CURVE"
);
}
);
width = 1000;
}
);
unicode = F012;
},
{
glyphname = Skype;
layers = (
{
layerId = "9777D1EF-E2A1-4411-A5D2-A69EAB6CED10";
name = Regular;
paths = (
{
closed = 1;
nodes = (
"751 314 OFFCURVE",
"761 346 OFFCURVE",
"761 383 CURVE SMOOTH",
"761 443 OFFCURVE",
"738 484 OFFCURVE",
"694 513 CURVE SMOOTH",
"673 526 OFFCURVE",
"648 538 OFFCURVE",
"619 547 CURVE",
"590 558 OFFCURVE",
"557 565 OFFCURVE",
"521 573 CURVE SMOOTH",
"494 579 OFFCURVE",
"474 584 OFFCURVE",
"460 588 CURVE SMOOTH",
"448 591 OFFCURVE",
"437 596 OFFCURVE",
"425 601 CURVE",
"402 613 OFFCURVE",
"390 628 OFFCURVE",
"390 647 CURVE SMOOTH",
"390 679 OFFCURVE",
"429 708 OFFCURVE",
"494 708 CURVE SMOOTH",
"561 708 OFFCURVE",
"583 683 OFFCURVE",
"607 642 CURVE SMOOTH",
"626 610 OFFCURVE",
"638 595 OFFCURVE",
"671 595 CURVE SMOOTH",
"706 595 OFFCURVE",
"734 625 OFFCURVE",
"734 657 CURVE SMOOTH",
"734 689 OFFCURVE",
"716 726 OFFCURVE",
"677 755 CURVE SMOOTH",
"638 784 OFFCURVE",
"579 805 OFFCURVE",
"502 805 CURVE SMOOTH",
"402 805 OFFCURVE",
"327 777 OFFCURVE",
"287 725 CURVE",
"268 698 OFFCURVE",
"258 669 OFFCURVE",
"258 636 CURVE SMOOTH",
"258 564 OFFCURVE",
"299 519 OFFCURVE",
"362 492 CURVE SMOOTH",
"392 479 OFFCURVE",
"430 468 OFFCURVE",
"477 458 CURVE SMOOTH",
"512 451 OFFCURVE",
"538 445 OFFCURVE",
"558 438 CURVE SMOOTH",
"595 426 OFFCURVE",
"622 403 OFFCURVE",
"622 370 CURVE SMOOTH",
"622 326 OFFCURVE",
"573 292 OFFCURVE",
"500 292 CURVE SMOOTH",
"445 292 OFFCURVE",
"417 309 OFFCURVE",
"400 332 CURVE SMOOTH",
"390 345 OFFCURVE",
"381 360 OFFCURVE",
"374 377 CURVE SMOOTH",
"359 412 OFFCURVE",
"341 428 OFFCURVE",
"310 428 CURVE SMOOTH",
"274 428 OFFCURVE",
"245 402 OFFCURVE",
"245 370 CURVE SMOOTH",
"245 318 OFFCURVE",
"285 258 OFFCURVE",
"346 226 CURVE SMOOTH",
"387 204 OFFCURVE",
"439 193 OFFCURVE",
"504 193 CURVE SMOOTH",
"611 193 OFFCURVE",
"688 226 OFFCURVE",
"731 285 CURVE SMOOTH"
);
},
{
closed = 1;
nodes = (
"952 365 OFFCURVE",
"961 327 OFFCURVE",
"961 287 CURVE SMOOTH",
"961 216 OFFCURVE",
"933 153 OFFCURVE",
"887 107 CURVE SMOOTH",
"841 61 OFFCURVE",
"777 32 OFFCURVE",
"706 32 CURVE SMOOTH",
"662 32 OFFCURVE",
"621 43 OFFCURVE",
"586 62 CURVE",
"559 58 OFFCURVE",
"532 55 OFFCURVE",
"505 55 CURVE SMOOTH",
"384 55 OFFCURVE",
"274 104 OFFCURVE",
"194 184 CURVE SMOOTH",
"114 264 OFFCURVE",
"65 374 OFFCURVE",
"65 495 CURVE SMOOTH",
"65 525 OFFCURVE",
"68 555 OFFCURVE",
"74 584 CURVE",
"51 621 OFFCURVE",
"39 664 OFFCURVE",
"39 713 CURVE SMOOTH",
"39 784 OFFCURVE",
"68 848 OFFCURVE",
"114 894 CURVE SMOOTH",
"160 940 OFFCURVE",
"223 968 OFFCURVE",
"294 968 CURVE SMOOTH",
"345 968 OFFCURVE",
"390 953 OFFCURVE",
"430 929 CURVE",
"454 933 OFFCURVE",
"479 935 OFFCURVE",
"505 935 CURVE SMOOTH",
"626 935 OFFCURVE",
"736 886 OFFCURVE",
"816 806 CURVE SMOOTH",
"896 726 OFFCURVE",
"945 616 OFFCURVE",
"945 495 CURVE SMOOTH",
"945 463 OFFCURVE",
"942 432 OFFCURVE",
"935 401 CURVE"
);
}
);
width = 1000;
}
);
unicode = F013;
},
{
glyphname = Steam;
layers = (
{
layerId = "9777D1EF-E2A1-4411-A5D2-A69EAB6CED10";
name = Regular;
paths = (
{
closed = 1;
nodes = (
"142 539 OFFCURVE",
"155 521 OFFCURVE",
"174 513 CURVE",
"224 486 LINE",
"215 482 OFFCURVE",
"205 480 OFFCURVE",
"195 480 CURVE SMOOTH",
"150 480 OFFCURVE",
"113 517 OFFCURVE",
"113 562 CURVE SMOOTH",
"113 607 OFFCURVE",
"150 643 OFFCURVE",
"195 643 CURVE SMOOTH",
"234 643 OFFCURVE",
"267 616 OFFCURVE",
"275 577 CURVE",
"225 605 LINE",
"216 611 OFFCURVE",
"206 614 OFFCURVE",
"195 614 CURVE SMOOTH",
"166 614 OFFCURVE",
"142 591 OFFCURVE",
"142 562 CURVE SMOOTH"
);
},
{
closed = 1;
nodes = (
"576 457 OFFCURVE",
"612 420 OFFCURVE",
"612 375 CURVE SMOOTH",
"612 330 OFFCURVE",
"576 294 OFFCURVE",
"531 294 CURVE SMOOTH",
"491 294 OFFCURVE",
"458 321 OFFCURVE",
"451 360 CURVE",
"501 332 LINE",
"509 326 OFFCURVE",
"519 323 OFFCURVE",
"531 323 CURVE SMOOTH",
"560 323 OFFCURVE",
"583 346 OFFCURVE",
"583 375 CURVE SMOOTH",
"583 398 OFFCURVE",
"570 416 OFFCURVE",
"551 424 CURVE",
"502 451 LINE",
"511 455 OFFCURVE",
"520 457 OFFCURVE",
"531 457 CURVE SMOOTH"
);
},
{
closed = 1;
nodes = (
"803 678 OFFCURVE",
"832 649 OFFCURVE",
"832 614 CURVE SMOOTH",
"832 579 OFFCURVE",
"803 551 OFFCURVE",
"768 551 CURVE SMOOTH",
"733 551 OFFCURVE",
"705 579 OFFCURVE",
"705 614 CURVE SMOOTH",
"705 649 OFFCURVE",
"733 678 OFFCURVE",
"768 678 CURVE SMOOTH"
);
},
{
closed = 1;
nodes = (
"823 517 OFFCURVE",
"866 559 OFFCURVE",
"866 614 CURVE SMOOTH",
"866 669 OFFCURVE",
"823 712 OFFCURVE",
"768 712 CURVE SMOOTH",
"741 712 OFFCURVE",
"718 702 OFFCURVE",
"700 684 CURVE SMOOTH",
"682 666 OFFCURVE",
"671 641 OFFCURVE",
"671 614 CURVE SMOOTH",
"671 587 OFFCURVE",
"682 562 OFFCURVE",
"700 545 CURVE SMOOTH",
"718 528 OFFCURVE",
"741 517 OFFCURVE",
"768 517 CURVE SMOOTH"
);
},
{
closed = 1;
nodes = (
"808 471 OFFCURVE",
"844 487 OFFCURVE",
"870 513 CURVE SMOOTH",
"896 539 OFFCURVE",
"912 574 OFFCURVE",
"912 614 CURVE SMOOTH",
"912 654 OFFCURVE",
"896 690 OFFCURVE",
"870 716 CURVE SMOOTH",
"844 742 OFFCURVE",
"808 758 OFFCURVE",
"768 758 CURVE SMOOTH",
"729 758 OFFCURVE",
"693 742 OFFCURVE",
"668 717 CURVE SMOOTH",
"643 692 OFFCURVE",
"626 656 OFFCURVE",
"625 617 CURVE",
"532 486 LINE",
"531 486 LINE SMOOTH",
"511 486 OFFCURVE",
"492 481 OFFCURVE",
"474 470 CURVE",
"305 571 LINE",
"301 619 OFFCURVE",
"266 660 OFFCURVE",
"215 669 CURVE",
"184 673 OFFCURVE",
"156 666 OFFCURVE",
"133 650 CURVE SMOOTH",
"110 633 OFFCURVE",
"94 608 OFFCURVE",
"90 579 CURVE SMOOTH",
"85 550 OFFCURVE",
"93 521 OFFCURVE",
"109 498 CURVE SMOOTH",
"125 475 OFFCURVE",
"150 459 OFFCURVE",
"179 454 CURVE SMOOTH",
"200 450 OFFCURVE",
"220 454 OFFCURVE",
"239 461 CURVE",
"421 359 LINE",
"428 304 OFFCURVE",
"474 263 OFFCURVE",
"531 263 CURVE SMOOTH",
"562 263 OFFCURVE",
"589 276 OFFCURVE",
"609 296 CURVE SMOOTH",
"629 316 OFFCURVE",
"642 343 OFFCURVE",
"642 374 CURVE",
"767 471 LINE",
"768 471 LINE SMOOTH"
);
},
{
closed = 1;
nodes = (
"958 984 OFFCURVE",
"969 973 OFFCURVE",
"969 960 CURVE SMOOTH",
"969 61 LINE SMOOTH",
"969 48 OFFCURVE",
"958 37 OFFCURVE",
"945 37 CURVE SMOOTH",
"55 37 LINE SMOOTH",
"42 37 OFFCURVE",
"31 48 OFFCURVE",
"31 61 CURVE SMOOTH",
"31 960 LINE SMOOTH",
"31 973 OFFCURVE",
"42 984 OFFCURVE",
"55 984 CURVE SMOOTH",
"945 984 LINE SMOOTH"
);
}
);
width = 1000;
}
);
unicode = F014;
},
{
glyphname = Instagram;
layers = (
{
layerId = "9777D1EF-E2A1-4411-A5D2-A69EAB6CED10";
name = Regular;
paths = (
{
closed = 1;
nodes = (
"925 876 LINE SMOOTH",
"925 907 OFFCURVE",
"901 932 OFFCURVE",
"870 932 CURVE SMOOTH",
"780 932 LINE SMOOTH",
"749 932 OFFCURVE",
"725 907 OFFCURVE",
"725 876 CURVE SMOOTH",
"725 800 LINE SMOOTH",
"725 769 OFFCURVE",
"749 745 OFFCURVE",
"780 745 CURVE SMOOTH",
"870 745 LINE SMOOTH",
"901 745 OFFCURVE",
"925 769 OFFCURVE",
"925 800 CURVE SMOOTH"
);
},
{
closed = 1;
nodes = (
"277 932 LINE",
"245 932 LINE",
"245 745 LINE",
"277 745 LINE",
"277 800 LINE",
"277 876 LINE"
);
},
{
closed = 1;
nodes = (
"222 932 LINE",
"189 932 LINE",
"189 745 LINE",
"222 745 LINE"
);
},
{
closed = 1;
nodes = (
"166 932 LINE",
"134 932 LINE",
"134 745 LINE",
"166 745 LINE"
);
},
{
closed = 1;
nodes = (
"110 927 LINE",
"91 919 OFFCURVE",
"77 899 OFFCURVE",
"77 876 CURVE SMOOTH",
"77 745 LINE",
"110 745 LINE"
);
},
{
closed = 1;
nodes = (
"958 973 OFFCURVE",
"969 963 OFFCURVE",
"969 950 CURVE SMOOTH",
"969 703 LINE",
"678 703 LINE",
"635 759 OFFCURVE",
"569 794 OFFCURVE",
"493 794 CURVE SMOOTH",
"417 794 OFFCURVE",
"351 759 OFFCURVE",
"308 703 CURVE",
"31 703 LINE",
"31 950 LINE SMOOTH",
"31 963 OFFCURVE",
"42 973 OFFCURVE",
"55 973 CURVE SMOOTH",
"945 973 LINE SMOOTH"
);
},
{
closed = 1;
nodes = (
"448 725 OFFCURVE",
"408 707 OFFCURVE",
"378 677 CURVE SMOOTH",
"348 647 OFFCURVE",
"329 606 OFFCURVE",
"329 561 CURVE SMOOTH",
"329 516 OFFCURVE",
"348 474 OFFCURVE",
"378 445 CURVE SMOOTH",
"408 416 OFFCURVE",
"448 397 OFFCURVE",
"493 397 CURVE SMOOTH",
"538 397 OFFCURVE",
"580 416 OFFCURVE",
"609 445 CURVE SMOOTH",
"638 474 OFFCURVE",
"657 516 OFFCURVE",
"657 561 CURVE SMOOTH",
"657 606 OFFCURVE",
"638 647 OFFCURVE",
"609 677 CURVE SMOOTH",
"580 707 OFFCURVE",
"538 725 OFFCURVE",
"493 725 CURVE SMOOTH"
);
},
{
closed = 1;
nodes = (
"436 355 OFFCURVE",
"384 378 OFFCURVE",
"347 415 CURVE SMOOTH",
"310 452 OFFCURVE",
"287 504 OFFCURVE",
"287 561 CURVE SMOOTH",
"287 618 OFFCURVE",
"310 670 OFFCURVE",
"347 707 CURVE SMOOTH",
"384 744 OFFCURVE",
"436 767 OFFCURVE",
"493 767 CURVE SMOOTH",
"550 767 OFFCURVE",
"602 744 OFFCURVE",
"639 707 CURVE SMOOTH",
"676 670 OFFCURVE",
"699 618 OFFCURVE",
"699 561 CURVE SMOOTH",
"699 504 OFFCURVE",
"676 452 OFFCURVE",
"639 415 CURVE SMOOTH",
"602 378 OFFCURVE",
"550 355 OFFCURVE",
"493 355 CURVE SMOOTH"
);
},
{
closed = 1;
nodes = (
"727 598 OFFCURVE",
"719 633 OFFCURVE",
"702 665 CURVE",
"969 665 LINE",
"969 50 LINE SMOOTH",
"969 37 OFFCURVE",
"958 27 OFFCURVE",
"945 27 CURVE SMOOTH",
"55 27 LINE SMOOTH",
"42 27 OFFCURVE",
"31 37 OFFCURVE",
"31 50 CURVE SMOOTH",
"31 665 LINE",
"284 665 LINE",
"269 634 OFFCURVE",
"260 598 OFFCURVE",
"260 561 CURVE SMOOTH",
"260 497 OFFCURVE",
"287 438 OFFCURVE",
"329 396 CURVE SMOOTH",
"371 354 OFFCURVE",
"429 327 OFFCURVE",
"493 327 CURVE SMOOTH",
"557 327 OFFCURVE",
"617 354 OFFCURVE",
"659 396 CURVE SMOOTH",
"701 438 OFFCURVE",
"727 497 OFFCURVE",
"727 561 CURVE SMOOTH"
);
}
);
width = 1000;
}
);
unicode = F015;
},
{
glyphname = Fourquare;
layers = (
{
layerId = "9777D1EF-E2A1-4411-A5D2-A69EAB6CED10";
name = Regular;
paths = (
{
closed = 1;
nodes = (
"452 679 OFFCURVE",
"459 617 OFFCURVE",
"436 565 CURVE",
"451 544 OFFCURVE",
"464 527 OFFCURVE",
"475 513 CURVE SMOOTH",
"486 499 OFFCURVE",
"492 492 OFFCURVE",
"493 491 CURVE",
"495 488 OFFCURVE",
"498 486 OFFCURVE",
"503 486 CURVE SMOOTH",
"508 486 OFFCURVE",
"512 488 OFFCURVE",
"515 492 CURVE SMOOTH",
"865 973 LINE",
"945 973 LINE SMOOTH",
"958 973 OFFCURVE",
"969 963 OFFCURVE",
"969 950 CURVE SMOOTH",
"969 751 LINE",
"512 366 LINE",
"510 364 OFFCURVE",
"507 363 OFFCURVE",
"504 363 CURVE SMOOTH",
"501 363 LINE SMOOTH",
"499 363 OFFCURVE",
"497 364 OFFCURVE",
"495 366 CURVE",
"350 483 LINE",
"333 476 OFFCURVE",
"314 473 OFFCURVE",
"295 473 CURVE SMOOTH",
"252 473 OFFCURVE",
"210 491 OFFCURVE",
"179 526 CURVE SMOOTH",
"151 558 OFFCURVE",
"140 598 OFFCURVE",
"143 638 CURVE SMOOTH",
"146 677 OFFCURVE",
"164 714 OFFCURVE",
"196 742 CURVE SMOOTH",
"225 767 OFFCURVE",
"260 779 OFFCURVE",
"296 779 CURVE SMOOTH",
"339 779 OFFCURVE",
"381 761 OFFCURVE",
"412 726 CURVE SMOOTH"
);
},
{
closed = 1;
nodes = (
"765 470 OFFCURVE",
"770 480 OFFCURVE",
"770 492 CURVE SMOOTH",
"770 504 OFFCURVE",
"766 514 OFFCURVE",
"757 523 CURVE",
"969 702 LINE",
"969 50 LINE SMOOTH",
"969 37 OFFCURVE",
"958 27 OFFCURVE",
"945 27 CURVE SMOOTH",
"55 27 LINE SMOOTH",
"42 27 OFFCURVE",
"31 37 OFFCURVE",
"31 50 CURVE SMOOTH",
"31 950 LINE SMOOTH",
"31 963 OFFCURVE",
"42 973 OFFCURVE",
"55 973 CURVE SMOOTH",
"819 973 LINE",
"603 677 LINE",
"539 741 LINE SMOOTH",
"530 750 OFFCURVE",
"519 755 OFFCURVE",
"507 755 CURVE SMOOTH",
"495 755 OFFCURVE",
"484 750 OFFCURVE",
"475 741 CURVE SMOOTH",
"459 725 LINE",
"454 733 OFFCURVE",
"448 742 OFFCURVE",
"441 750 CURVE SMOOTH",
"405 793 OFFCURVE",
"352 817 OFFCURVE",
"296 817 CURVE SMOOTH",
"249 817 OFFCURVE",
"207 800 OFFCURVE",
"172 771 CURVE SMOOTH",
"132 736 OFFCURVE",
"110 689 OFFCURVE",
"106 641 CURVE SMOOTH",
"102 592 OFFCURVE",
"116 542 OFFCURVE",
"151 502 CURVE SMOOTH",
"184 463 OFFCURVE",
"231 439 OFFCURVE",
"282 436 CURVE",
"475 243 LINE SMOOTH",
"484 234 OFFCURVE",
"495 229 OFFCURVE",
"507 229 CURVE SMOOTH",
"519 229 OFFCURVE",
"530 234 OFFCURVE",
"539 243 CURVE SMOOTH",
"756 461 LINE SMOOTH"
);
}
);
width = 1000;
}
);
unicode = F016;
},
{
glyphname = Delicious;
layers = (
{
layerId = "9777D1EF-E2A1-4411-A5D2-A69EAB6CED10";
name = Regular;
paths = (
{
closed = 1;
nodes = (
"507 508 OFFCURVE",
"496 498 OFFCURVE",
"483 498 CURVE SMOOTH",
"59 498 LINE SMOOTH",
"46 498 OFFCURVE",
"36 508 OFFCURVE",
"36 521 CURVE SMOOTH",
"36 949 LINE SMOOTH",
"36 962 OFFCURVE",
"46 973 OFFCURVE",
"59 973 CURVE SMOOTH",
"483 973 LINE SMOOTH",
"496 973 OFFCURVE",
"507 962 OFFCURVE",
"507 949 CURVE SMOOTH",
"507 521 LINE SMOOTH"
);
},
{
closed = 1;
nodes = (
"954 512 OFFCURVE",
"965 501 OFFCURVE",
"965 488 CURVE SMOOTH",
"965 60 LINE SMOOTH",
"965 47 OFFCURVE",
"954 36 OFFCURVE",
"941 36 CURVE SMOOTH",
"518 36 LINE SMOOTH",
"505 36 OFFCURVE",
"494 47 OFFCURVE",
"494 60 CURVE SMOOTH",
"494 488 LINE SMOOTH",
"494 501 OFFCURVE",
"505 512 OFFCURVE",
"518 512 CURVE SMOOTH",
"941 512 LINE SMOOTH"
);
}
);
width = 1000;
}
);
unicode = F017;
},
{
glyphname = Chat;
layers = (
{
layerId = "9777D1EF-E2A1-4411-A5D2-A69EAB6CED10";
name = Regular;
paths = (
{
closed = 1;
nodes = (
"872 82 LINE SMOOTH",
"883 62 OFFCURVE",
"864 48 OFFCURVE",
"851 48 CURVE SMOOTH",
"847 48 OFFCURVE",
"843 49 OFFCURVE",
"839 51 CURVE",
"634 171 LINE",
"590 159 OFFCURVE",
"545 153 OFFCURVE",
"500 153 CURVE SMOOTH",
"375 153 OFFCURVE",
"262 198 OFFCURVE",
"180 270 CURVE SMOOTH",
"98 342 OFFCURVE",
"47 442 OFFCURVE",
"47 553 CURVE SMOOTH",
"47 662 OFFCURVE",
"98 763 OFFCURVE",
"180 835 CURVE SMOOTH",
"262 907 OFFCURVE",
"375 952 OFFCURVE",
"500 952 CURVE SMOOTH",
"625 952 OFFCURVE",
"739 907 OFFCURVE",
"821 835 CURVE SMOOTH",
"903 763 OFFCURVE",
"953 662 OFFCURVE",
"953 553 CURVE SMOOTH",
"953 432 OFFCURVE",
"892 318 OFFCURVE",
"785 242 CURVE"
);
}
);
width = 1000;
}
);
unicode = F018;
},
{
glyphname = Person;
layers = (
{
layerId = "9777D1EF-E2A1-4411-A5D2-A69EAB6CED10";
name = Regular;
paths = (
{
closed = 1;
nodes = (
"894 361 OFFCURVE",
"905 343 OFFCURVE",
"905 320 CURVE SMOOTH",
"905 98 LINE SMOOTH",
"905 67 OFFCURVE",
"886 44 OFFCURVE",
"859 44 CURVE SMOOTH",
"141 44 LINE SMOOTH",
"114 44 OFFCURVE",
"95 67 OFFCURVE",
"95 98 CURVE SMOOTH",
"95 320 LINE SMOOTH",
"95 343 OFFCURVE",
"105 362 OFFCURVE",
"124 370 CURVE",
"405 501 LINE",
"337 541 OFFCURVE",
"293 620 OFFCURVE",
"293 715 CURVE SMOOTH",
"293 782 OFFCURVE",
"316 842 OFFCURVE",
"353 886 CURVE SMOOTH",
"390 929 OFFCURVE",
"443 956 OFFCURVE",
"500 956 CURVE SMOOTH",
"557 956 OFFCURVE",
"610 929 OFFCURVE",
"647 886 CURVE SMOOTH",
"684 842 OFFCURVE",
"707 782 OFFCURVE",
"707 715 CURVE SMOOTH",
"707 623 OFFCURVE",
"663 543 OFFCURVE",
"598 502 CURVE",
"877 370 LINE"
);
}
);
width = 1000;
}
);
unicode = F019;
},
{
glyphname = Tumblr;
layers = (
{
layerId = "9777D1EF-E2A1-4411-A5D2-A69EAB6CED10";
name = Regular;
paths = (
{
closed = 1;
nodes = (
"969 50 LINE SMOOTH",
"969 37 OFFCURVE",
"958 27 OFFCURVE",
"945 27 CURVE SMOOTH",
"55 27 LINE SMOOTH",
"42 27 OFFCURVE",
"31 37 OFFCURVE",
"31 50 CURVE SMOOTH",
"31 950 LINE SMOOTH",
"31 963 OFFCURVE",
"42 973 OFFCURVE",
"55 973 CURVE SMOOTH",
"945 973 LINE SMOOTH",
"958 973 OFFCURVE",
"969 963 OFFCURVE",
"969 950 CURVE SMOOTH"
);
},
{
closed = 1;
nodes = (
"588 280 OFFCURVE",
"568 285 OFFCURVE",
"553 292 CURVE SMOOTH",
"537 299 OFFCURVE",
"526 307 OFFCURVE",
"526 314 CURVE SMOOTH",
"526 450 LINE",
"526 556 LINE",
"679 556 LINE",
"679 584 LINE",
"679 662 LINE",
"526 662 LINE",
"526 822 LINE",
"438 822 LINE",
"436 781 OFFCURVE",
"425 746 OFFCURVE",
"405 717 CURVE SMOOTH",
"386 690 OFFCURVE",
"359 662 OFFCURVE",
"315 662 CURVE SMOOTH",
"302 662 LINE",
"302 556 LINE",
"375 556 LINE",
"375 528 LINE",
"375 294 LINE SMOOTH",
"375 245 OFFCURVE",
"398 215 OFFCURVE",
"428 199 CURVE SMOOTH",
"458 182 OFFCURVE",
"494 178 OFFCURVE",
"525 178 CURVE SMOOTH",
"565 178 LINE SMOOTH",
"612 178 OFFCURVE",
"640 180 OFFCURVE",
"659 184 CURVE SMOOTH",
"678 188 OFFCURVE",
"687 193 OFFCURVE",
"698 198 CURVE",
"698 311 LINE",
"698 312 LINE",
"698 311 LINE",
"671 294 OFFCURVE",
"638 280 OFFCURVE",
"605 280 CURVE SMOOTH"
);
}
);
width = 1000;
}
);
unicode = F01A;
},
{
glyphname = VideoChat;
layers = (
{
layerId = "9777D1EF-E2A1-4411-A5D2-A69EAB6CED10";
name = Regular;
paths = (
{
closed = 1;
nodes = (
"720 423 LINE",
"720 689 LINE",
"581 624 LINE",
"581 623 LINE",
"581 684 LINE SMOOTH",
"581 699 OFFCURVE",
"569 711 OFFCURVE",
"554 711 CURVE SMOOTH",
"318 711 LINE SMOOTH",
"303 711 OFFCURVE",
"292 699 OFFCURVE",
"292 684 CURVE SMOOTH",
"292 427 LINE SMOOTH",
"292 412 OFFCURVE",
"303 400 OFFCURVE",
"318 400 CURVE SMOOTH",
"554 400 LINE SMOOTH",
"569 400 OFFCURVE",
"581 412 OFFCURVE",
"581 427 CURVE SMOOTH",
"581 489 LINE"
);
},
{
closed = 1;
nodes = (
"629 952 OFFCURVE",
"743 907 OFFCURVE",
"825 835 CURVE SMOOTH",
"907 763 OFFCURVE",
"957 662 OFFCURVE",
"957 553 CURVE SMOOTH",
"957 442 OFFCURVE",
"907 342 OFFCURVE",
"825 270 CURVE SMOOTH",
"743 198 OFFCURVE",
"629 153 OFFCURVE",
"504 153 CURVE SMOOTH",
"459 153 OFFCURVE",
"414 159 OFFCURVE",
"370 171 CURVE",
"165 51 LINE",
"161 49 OFFCURVE",
"157 48 OFFCURVE",
"153 48 CURVE SMOOTH",
"140 48 OFFCURVE",
"121 62 OFFCURVE",
"132 82 CURVE SMOOTH",
"219 242 LINE",
"112 318 OFFCURVE",
"51 432 OFFCURVE",
"51 553 CURVE SMOOTH",
"51 662 OFFCURVE",
"102 763 OFFCURVE",
"184 835 CURVE SMOOTH",
"266 907 OFFCURVE",
"379 952 OFFCURVE",
"504 952 CURVE SMOOTH"
);
}
);
width = 1000;
}
);
unicode = F01B;
},
{
glyphname = Digg;
layers = (
{
layerId = "9777D1EF-E2A1-4411-A5D2-A69EAB6CED10";
name = Regular;
paths = (
{
closed = 1;
nodes = (
"882 647 LINE",
"827 647 LINE",
"827 593 LINE",
"827 538 LINE",
"771 538 LINE",
"557 538 LINE",
"501 538 LINE",
"501 593 LINE",
"501 647 LINE",
"445 647 LINE",
"445 480 LINE",
"445 480 LINE",
"501 480 LINE",
"501 480 LINE",
"501 158 LINE",
"664 158 LINE",
"664 318 LINE",
"720 318 LINE",
"720 158 LINE",
"826 158 LINE",
"826 480 LINE",
"827 480 LINE",
"882 480 LINE"
);
},
{
closed = 1;
nodes = (
"557 807 LINE",
"557 593 LINE",
"771 593 LINE",
"771 647 LINE",
"771 699 LINE",
"771 807 LINE"
);
},
{
closed = 1;
nodes = (
"938 699 LINE",
"938 647 LINE",
"938 480 LINE",
"938 424 LINE",
"882 424 LINE",
"882 103 LINE",
"827 103 LINE",
"826 103 LINE",
"720 103 LINE",
"664 103 LINE",
"501 103 LINE",
"501 103 LINE",
"445 103 LINE",
"445 424 LINE",
"282 424 LINE",
"282 318 LINE",
"334 318 LINE",
"334 263 LINE",
"390 263 LINE",
"390 103 LINE",
"334 103 LINE",
"334 103 LINE",
"174 103 LINE",
"118 103 LINE",
"118 263 LINE",
"174 263 LINE",
"174 158 LINE",
"334 158 LINE",
"334 263 LINE",
"174 263 LINE",
"174 318 LINE",
"226 318 LINE",
"226 424 LINE",
"118 424 LINE",
"118 480 LINE",
"389 480 LINE",
"389 699 LINE",
"390 699 LINE",
"445 699 LINE",
"501 699 LINE",
"501 807 LINE",
"501 863 LINE",
"557 863 LINE",
"771 863 LINE",
"827 863 LINE",
"827 807 LINE",
"827 699 LINE",
"882 699 LINE"
);
},
{
closed = 1;
nodes = (
"334 699 LINE",
"334 751 LINE",
"389 751 LINE",
"389 699 LINE"
);
},
{
closed = 1;
nodes = (
"118 699 LINE",
"118 480 LINE",
"63 480 LINE",
"63 699 LINE"
);
},
{
closed = 1;
nodes = (
"174 699 LINE",
"118 699 LINE",
"118 751 LINE",
"174 751 LINE"
);
},
{
closed = 1;
nodes = (
"334 751 LINE",
"174 751 LINE",
"174 807 LINE",
"334 807 LINE"
);
}
);
width = 1000;
}
);
unicode = F01C;
},
{
glyphname = Wordpress;
layers = (
{
layerId = "9777D1EF-E2A1-4411-A5D2-A69EAB6CED10";
name = Regular;
paths = (
{
closed = 1;
nodes = (
"380 55 OFFCURVE",
"270 104 OFFCURVE",
"191 184 CURVE SMOOTH",
"112 263 OFFCURVE",
"63 373 OFFCURVE",
"63 493 CURVE SMOOTH",
"63 613 OFFCURVE",
"112 723 OFFCURVE",
"191 802 CURVE SMOOTH",
"270 881 OFFCURVE",
"380 930 OFFCURVE",
"500 930 CURVE SMOOTH",
"620 930 OFFCURVE",
"730 881 OFFCURVE",
"810 802 CURVE SMOOTH",
"889 723 OFFCURVE",
"938 613 OFFCURVE",
"938 493 CURVE SMOOTH",
"938 373 OFFCURVE",
"889 263 OFFCURVE",
"810 184 CURVE SMOOTH",
"730 104 OFFCURVE",
"620 55 OFFCURVE",
"500 55 CURVE SMOOTH"
);
},
{
closed = 1;
nodes = (
"388 899 OFFCURVE",
"287 853 OFFCURVE",
"213 780 CURVE SMOOTH",
"139 707 OFFCURVE",
"93 605 OFFCURVE",
"93 493 CURVE SMOOTH",
"93 381 OFFCURVE",
"139 280 OFFCURVE",
"213 206 CURVE SMOOTH",
"287 132 OFFCURVE",
"388 86 OFFCURVE",
"500 86 CURVE SMOOTH",
"612 86 OFFCURVE",
"714 132 OFFCURVE",
"788 206 CURVE SMOOTH",
"862 280 OFFCURVE",
"907 381 OFFCURVE",
"907 493 CURVE SMOOTH",
"907 605 OFFCURVE",
"862 707 OFFCURVE",
"788 780 CURVE SMOOTH",
"714 853 OFFCURVE",
"612 899 OFFCURVE",
"500 899 CURVE SMOOTH"
);
},
{
closed = 1;
nodes = (
"395 135 LINE",
"428 126 OFFCURVE",
"464 120 OFFCURVE",
"500 120 CURVE SMOOTH",
"542 120 OFFCURVE",
"583 127 OFFCURVE",
"624 142 CURVE",
"507 457 LINE"
);
},
{
closed = 1;
nodes = (
"317 704 OFFCURVE",
"325 698 OFFCURVE",
"326 690 CURVE SMOOTH",
"329 671 OFFCURVE",
"304 672 OFFCURVE",
"291 672 CURVE",
"284 671 OFFCURVE",
"277 671 OFFCURVE",
"270 670 CURVE",
"406 269 LINE",
"488 511 LINE",
"429 669 LINE",
"416 670 OFFCURVE",
"407 672 OFFCURVE",
"400 673 CURVE SMOOTH",
"386 675 OFFCURVE",
"383 673 OFFCURVE",
"378 680 CURVE SMOOTH",
"373 687 OFFCURVE",
"375 696 OFFCURVE",
"382 701 CURVE",
"385 704 OFFCURVE",
"389 704 OFFCURVE",
"393 703 CURVE",
"393 703 OFFCURVE",
"398 702 OFFCURVE",
"407 701 CURVE",
"426 698 OFFCURVE",
"460 697 OFFCURVE",
"508 698 CURVE SMOOTH",
"532 699 OFFCURVE",
"559 701 OFFCURVE",
"589 704 CURVE",
"597 704 OFFCURVE",
"605 698 OFFCURVE",
"606 690 CURVE SMOOTH",
"609 671 OFFCURVE",
"584 672 OFFCURVE",
"571 672 CURVE",
"564 671 OFFCURVE",
"558 671 OFFCURVE",
"551 670 CURVE",
"686 269 LINE",
"697 305 OFFCURVE",
"706 335 OFFCURVE",
"713 359 CURVE SMOOTH",
"720 383 OFFCURVE",
"725 403 OFFCURVE",
"730 418 CURVE SMOOTH",
"741 453 OFFCURVE",
"754 485 OFFCURVE",
"751 530 CURVE SMOOTH",
"747 574 OFFCURVE",
"732 592 OFFCURVE",
"717 616 CURVE SMOOTH",
"701 640 OFFCURVE",
"688 668 OFFCURVE",
"684 696 CURVE SMOOTH",
"680 723 OFFCURVE",
"698 754 OFFCURVE",
"719 763 CURVE",
"730 767 OFFCURVE",
"741 768 OFFCURVE",
"752 767 CURVE",
"685 828 OFFCURVE",
"597 865 OFFCURVE",
"500 865 CURVE SMOOTH",
"369 865 OFFCURVE",
"256 799 OFFCURVE",
"189 698 CURVE",
"221 697 OFFCURVE",
"261 697 OFFCURVE",
"309 704 CURVE"
);
},
{
closed = 1;
nodes = (
"128 420 OFFCURVE",
"149 351 OFFCURVE",
"186 293 CURVE SMOOTH",
"223 235 OFFCURVE",
"275 187 OFFCURVE",
"338 158 CURVE",
"159 642 LINE",
"138 595 OFFCURVE",
"128 545 OFFCURVE",
"128 493 CURVE SMOOTH"
);
},
{
closed = 1;
nodes = (
"872 556 OFFCURVE",
"858 614 OFFCURVE",
"829 667 CURVE",
"830 660 OFFCURVE",
"831 653 OFFCURVE",
"831 646 CURVE SMOOTH",
"831 639 OFFCURVE",
"831 631 OFFCURVE",
"830 624 CURVE SMOOTH",
"822 552 OFFCURVE",
"799 495 OFFCURVE",
"780 442 CURVE SMOOTH",
"776 431 OFFCURVE",
"770 412 OFFCURVE",
"761 386 CURVE SMOOTH",
"752 360 OFFCURVE",
"743 333 OFFCURVE",
"733 305 CURVE SMOOTH",
"723 276 OFFCURVE",
"714 249 OFFCURVE",
"705 224 CURVE SMOOTH",
"696 199 OFFCURVE",
"690 181 OFFCURVE",
"686 170 CURVE",
"742 202 OFFCURVE",
"788 249 OFFCURVE",
"821 305 CURVE SMOOTH",
"853 360 OFFCURVE",
"872 424 OFFCURVE",
"872 493 CURVE SMOOTH"
);
}
);
width = 1000;
}
);
unicode = F01D;
},
{
glyphname = asciitilde;
lastChange = "2013-12-11 17:09:08 +0200";
layers = (
{
layerId = "9777D1EF-E2A1-4411-A5D2-A69EAB6CED10";
name = Regular;
paths = (
{
closed = 1;
nodes = (
"82 222 LINE SMOOTH",
"889 222 LINE SMOOTH",
"889 348 LINE SMOOTH",
"82 348 LINE SMOOTH"
);
},
{
closed = 1;
nodes = (
"82 123 LINE SMOOTH",
"82 45 OFFCURVE",
"124 3 OFFCURVE",
"202 3 CURVE SMOOTH",
"557 3 LINE",
"524 -197 LINE",
"672 3 LINE",
"769 3 LINE SMOOTH",
"847 3 OFFCURVE",
"889 45 OFFCURVE",
"889 123 CURVE SMOOTH",
"889 129 LINE SMOOTH",
"82 129 LINE SMOOTH"
);
},
{
closed = 1;
nodes = (
"82 442 LINE SMOOTH",
"889 442 LINE SMOOTH",
"889 568 LINE SMOOTH",
"82 568 LINE SMOOTH"
);
},
{
closed = 1;
nodes = (
"890 678 LINE SMOOTH",
"891 756 OFFCURVE",
"848 796 OFFCURVE",
"770 797 CURVE SMOOTH",
"203 797 LINE SMOOTH",
"125 795 OFFCURVE",
"84 754 OFFCURVE",
"83 676 CURVE SMOOTH",
"82 670 LINE SMOOTH",
"889 671 LINE SMOOTH"
);
}
);
width = 1000;
}
);
unicode = 007E;
},
{
glyphname = ThumbsUp;
layers = (
{
layerId = "9777D1EF-E2A1-4411-A5D2-A69EAB6CED10";
name = Regular;
paths = (
{
closed = 1;
nodes = (
"111 743 OFFCURVE",
"123 747 OFFCURVE",
"135 747 CURVE SMOOTH",
"335 747 LINE",
"330 790 OFFCURVE",
"323 819 OFFCURVE",
"318 842 CURVE SMOOTH",
"311 874 OFFCURVE",
"326 903 OFFCURVE",
"345 926 CURVE SMOOTH",
"364 949 OFFCURVE",
"386 965 OFFCURVE",
"394 970 CURVE",
"413 983 OFFCURVE",
"442 975 OFFCURVE",
"453 951 CURVE SMOOTH",
"544 747 LINE",
"636 747 LINE SMOOTH",
"659 747 OFFCURVE",
"676 730 OFFCURVE",
"676 707 CURVE SMOOTH",
"676 303 LINE SMOOTH",
"676 280 OFFCURVE",
"659 263 OFFCURVE",
"636 263 CURVE SMOOTH",
"266 263 LINE SMOOTH",
"257 263 OFFCURVE",
"233 268 OFFCURVE",
"210 281 CURVE SMOOTH",
"186 294 OFFCURVE",
"161 316 OFFCURVE",
"152 352 CURVE",
"96 699 LINE SMOOTH",
"94 712 OFFCURVE",
"97 723 OFFCURVE",
"104 732 CURVE"
);
},
{
closed = 1;
nodes = (
"871 755 LINE SMOOTH",
"887 755 OFFCURVE",
"900 743 OFFCURVE",
"900 727 CURVE SMOOTH",
"900 281 LINE SMOOTH",
"900 266 OFFCURVE",
"887 253 OFFCURVE",
"871 253 CURVE SMOOTH",
"754 253 LINE SMOOTH",
"738 253 OFFCURVE",
"725 266 OFFCURVE",
"725 281 CURVE SMOOTH",
"725 727 LINE SMOOTH",
"725 743 OFFCURVE",
"738 755 OFFCURVE",
"754 755 CURVE SMOOTH"
);
}
